{"glyphs":{"0":{"ha":913,"x_min":71,"x_max":842,"o":"m 453 934 l 459 934 q 713 817 599 934 q 842 467 842 669 q 713 117 842 265 q 456 0 599 0 q 179 142 297 0 q 71 463 71 283 l 71 471 q 182 797 71 653 q 453 934 302 934 m 165 470 l 165 463 q 252 201 165 318 q 458 94 342 94 q 673 217 580 94 q 748 467 748 330 q 670 721 748 608 q 456 840 579 840 l 455 840 q 241 718 334 840 q 165 470 165 606 z "},"1":{"ha":445,"x_min":102,"x_max":298,"o":"m 102 915 l 297 915 l 298 914 l 298 -6 l 297 -7 l 204 -7 l 203 -6 l 203 821 l 102 821 l 102 821 l 102 914 l 102 915 z "},"2":{"ha":676,"x_min":66,"x_max":609,"o":"m 339 937 q 555 825 476 937 q 593 745 579 791 q 609 649 609 699 q 576 519 609 577 l 408 326 l 229 119 l 199 84 l 608 84 l 608 -11 l 78 -11 l 77 -10 l 77 90 q 84 98 77 91 l 254 294 l 416 481 l 498 576 q 514 650 514 609 q 474 774 514 716 q 342 842 425 842 l 336 842 q 178 732 220 842 q 165 680 171 713 q 161 648 161 659 l 66 648 l 66 650 q 85 756 66 694 q 117 822 99 793 q 146 859 127 839 q 339 937 220 937 z "},"3":{"ha":713,"x_min":62,"x_max":635,"o":"m 357 937 q 525 874 450 937 q 555 843 548 853 q 584 798 576 816 q 612 682 612 742 l 612 679 q 552 513 612 588 q 516 478 530 489 q 507 471 508 472 q 545 441 519 463 q 576 407 566 420 q 635 234 635 328 q 571 54 635 135 q 541 24 561 42 q 496 -9 515 1 q 353 -50 427 -50 l 344 -50 q 212 -16 277 -50 q 162 18 189 -3 q 125 56 136 42 q 100 91 109 76 q 79 136 90 108 q 62 229 62 185 l 62 233 l 62 234 l 156 234 l 157 233 l 157 233 q 200 114 157 168 q 228 87 218 94 q 348 45 282 45 l 349 45 q 471 89 416 45 q 500 119 493 108 q 541 234 541 172 q 498 353 541 299 q 468 382 480 373 q 437 402 450 395 q 351 423 394 423 l 282 423 l 281 424 l 281 517 l 282 518 l 367 518 q 408 526 391 520 q 450 547 430 534 q 476 570 460 554 q 501 609 495 594 q 517 680 517 642 q 476 789 517 741 q 450 812 456 809 q 358 842 408 842 l 356 842 q 256 805 301 842 q 197 677 197 754 l 197 675 l 197 674 l 102 674 l 102 682 q 152 833 102 763 q 182 867 160 845 q 215 894 201 884 q 357 937 281 937 z "},"4":{"ha":686,"x_min":16,"x_max":627,"o":"m 457 738 l 321 498 l 179 246 l 457 246 l 457 738 m 551 920 l 552 920 l 552 246 l 627 246 l 627 152 l 627 151 l 552 151 l 552 -5 l 551 -6 l 458 -6 l 457 -5 l 457 151 l 16 151 l 161 408 l 324 696 l 431 886 l 451 920 l 551 920 z "},"5":{"ha":777,"x_min":55,"x_max":703,"o":"m 634 920 l 635 920 l 635 825 l 342 825 l 334 796 l 289 619 l 290 619 q 365 627 327 627 q 561 564 471 627 q 604 528 577 553 q 642 482 630 500 q 703 288 703 393 q 640 90 703 181 q 604 49 627 73 q 557 9 575 22 q 499 -22 524 -12 q 370 -50 433 -50 l 357 -50 q 234 -24 298 -50 q 178 5 206 -13 q 129 44 159 17 q 92 87 100 74 q 65 130 75 110 q 55 151 56 145 l 141 189 q 168 143 152 166 q 196 113 178 131 q 243 77 222 89 q 362 45 300 45 l 367 45 q 509 92 442 45 q 542 121 521 100 l 555 137 q 580 175 572 159 q 608 288 608 230 q 549 448 608 377 q 522 475 533 465 q 364 532 451 532 q 232 494 295 532 l 146 445 l 215 714 l 268 920 l 268 920 l 634 920 z "},"6":{"ha":783,"x_min":65,"x_max":721,"o":"m 160 282 l 160 279 q 208 138 160 203 q 236 106 216 127 q 393 45 306 45 q 548 104 479 45 q 576 136 572 128 q 626 281 626 201 q 558 448 626 376 q 527 475 539 467 q 393 517 466 517 q 239 458 307 517 q 212 429 218 438 q 160 282 160 363 m 393 935 l 475 888 l 309 602 q 391 612 351 612 l 395 612 q 576 556 491 612 q 621 520 596 543 q 656 480 644 497 q 684 434 675 453 q 721 286 721 360 l 721 277 q 678 116 721 195 q 645 68 666 94 q 613 35 636 57 q 514 -27 567 -6 q 393 -50 456 -50 q 196 16 286 -50 q 157 50 181 27 q 116 103 129 82 q 85 168 96 135 q 65 276 65 223 l 65 286 q 100 431 65 358 q 166 545 109 448 l 341 846 l 393 935 z "},"7":{"ha":637,"x_min":36,"x_max":602,"o":"m 37 920 l 601 920 l 602 920 l 602 831 l 488 616 l 332 323 l 191 56 l 151 -22 l 150 -22 q 66 22 147 -21 l 236 344 l 363 585 q 466 778 364 585 q 490 825 489 821 l 37 825 l 36 826 l 36 920 l 37 920 z "},"8":{"ha":734,"x_min":67,"x_max":667,"o":"m 162 244 l 162 243 q 205 123 162 178 q 237 91 222 102 q 365 47 296 47 l 368 47 q 505 98 444 47 q 530 125 526 118 q 572 244 572 179 q 520 374 572 316 q 487 404 498 397 q 368 441 432 441 l 367 441 q 229 390 290 441 q 202 360 206 368 q 178 321 188 343 q 162 244 162 284 m 213 690 q 258 581 213 629 q 367 536 305 536 q 479 585 432 536 q 521 688 521 632 l 521 692 q 479 795 521 748 q 367 844 431 844 q 258 800 306 844 q 213 690 213 752 m 366 939 l 369 939 q 509 895 444 939 q 545 864 523 886 q 580 819 571 836 q 616 691 616 759 q 559 531 616 603 q 524 497 536 507 l 522 494 q 562 467 537 486 q 601 427 587 445 q 667 244 667 345 q 595 54 667 138 q 562 22 570 27 q 513 -12 533 -1 q 372 -49 443 -49 l 361 -49 q 230 -17 296 -49 q 180 15 206 -5 q 150 41 166 26 q 104 103 119 76 q 87 138 95 119 q 67 239 67 190 l 67 249 q 104 385 67 317 q 213 494 144 455 q 181 524 203 502 q 153 564 163 547 q 118 690 118 623 q 176 851 118 779 q 212 885 202 879 q 241 905 228 898 q 366 939 300 939 z "},"9":{"ha":780,"x_min":62,"x_max":718,"o":"m 157 608 l 157 606 q 210 457 157 525 q 248 420 229 435 q 390 371 313 371 q 541 427 473 371 q 568 454 560 444 q 623 607 623 522 l 623 608 q 567 762 623 693 q 535 793 549 783 q 391 844 470 844 l 389 844 q 239 787 307 844 q 211 758 217 766 q 157 608 157 690 m 385 939 l 395 939 q 543 901 470 939 q 595 867 568 888 q 646 816 626 840 q 680 763 670 784 q 704 705 693 740 q 718 612 718 656 l 718 603 q 671 436 718 517 l 573 267 l 403 -26 l 396 -37 q 315 12 317 9 l 465 269 l 475 286 l 475 287 l 474 287 q 390 276 432 276 q 193 342 283 276 q 159 372 178 353 q 115 427 127 406 q 90 474 100 451 q 62 602 62 538 l 62 613 q 98 758 62 685 q 132 812 111 783 q 159 842 143 826 q 205 880 190 871 q 255 909 230 898 q 385 939 321 939 z "}," ":{"ha":345,"x_min":0,"x_max":0,"o":""},"!":{"ha":446,"x_min":180,"x_max":316,"o":"m 248 136 l 249 136 q 300 112 278 136 q 316 71 316 92 l 316 66 q 291 16 316 37 q 248 0 272 0 q 201 19 222 0 q 180 65 180 41 l 180 71 q 203 118 180 96 q 248 136 222 136 m 188 993 l 309 993 l 309 992 l 296 220 l 201 220 l 187 992 l 188 993 z "},"\"":{"ha":545,"x_min":108,"x_max":386,"o":"m 108 746 l 108 1017 l 203 1017 l 203 746 l 108 746 m 291 746 l 291 1017 l 386 1017 l 386 746 l 291 746 z "},"#":{"ha":646,"x_min":24,"x_max":621,"o":"m 254 563 l 227 401 l 382 401 l 410 563 l 254 563 m 216 908 l 309 892 l 309 892 l 271 658 l 426 658 l 467 901 q 560 886 559 886 l 522 658 l 621 658 l 621 563 l 506 563 l 479 401 l 585 401 l 586 400 l 586 307 l 585 306 l 463 306 l 416 24 l 322 39 l 367 306 l 212 306 l 165 30 l 72 46 l 115 306 l 25 306 l 24 307 l 24 400 l 25 401 l 131 401 l 158 563 l 60 563 l 60 564 l 60 657 l 60 658 l 174 658 l 216 908 l 216 908 z "},"$":{"ha":717,"x_min":66,"x_max":646,"o":"m 307 977 l 401 977 l 401 976 l 401 909 q 479 890 446 904 q 569 833 526 872 q 600 798 593 808 q 624 762 618 774 q 539 720 562 731 l 530 734 q 509 759 522 745 q 368 817 449 817 l 363 817 q 245 783 296 817 q 187 707 204 755 q 181 666 181 686 l 181 665 q 214 592 181 618 q 259 566 236 575 q 452 510 316 538 q 512 489 488 500 q 559 460 534 478 q 585 437 570 452 q 615 397 607 412 q 646 283 646 345 q 587 123 646 195 q 556 92 568 102 q 513 64 531 73 q 467 44 495 54 q 414 31 448 37 l 401 29 l 401 -38 l 401 -39 l 307 -39 l 306 -38 l 306 31 q 259 41 279 35 q 201 66 227 52 q 151 101 178 79 q 113 140 126 124 q 73 200 84 177 q 66 216 66 214 l 152 256 q 184 203 163 230 q 221 167 207 177 q 267 140 248 147 q 356 121 311 121 l 361 121 q 485 158 427 121 q 511 180 496 165 q 536 219 531 204 q 551 283 551 251 q 498 387 551 347 q 471 403 483 397 q 436 416 456 410 l 349 436 q 212 482 264 457 q 165 509 191 492 q 136 536 151 519 q 86 661 86 589 l 86 670 q 119 786 86 728 q 149 825 129 803 q 184 857 174 850 q 226 882 204 871 q 262 896 239 888 q 306 906 299 906 l 306 976 l 307 977 z "},"%":{"ha":977,"x_min":63,"x_max":915,"o":"m 168 780 l 168 779 q 201 712 168 739 q 252 694 225 694 q 319 728 292 694 q 337 779 337 751 l 337 781 q 312 840 337 813 q 252 864 286 864 q 193 840 219 864 q 168 780 168 814 m 640 185 q 680 113 640 141 q 726 100 701 100 q 795 135 766 100 q 810 181 810 159 l 810 187 q 779 250 810 222 q 728 269 754 269 l 723 269 q 660 239 687 269 q 640 185 640 214 m 725 374 q 863 316 803 374 l 869 308 q 915 185 915 253 q 857 48 915 106 q 818 19 833 26 q 728 -5 774 -5 l 722 -5 q 607 37 661 -5 q 575 68 587 54 q 536 182 536 122 l 536 187 q 582 309 536 253 q 616 339 605 334 q 725 374 667 374 m 250 968 l 254 968 q 376 923 321 968 q 404 893 398 902 q 442 780 442 841 q 385 644 442 703 l 375 634 q 252 590 319 590 q 131 634 185 590 q 106 660 114 649 q 84 692 92 678 q 63 774 63 735 l 63 783 q 100 892 63 840 q 125 921 106 901 q 250 968 182 968 m 854 972 l 233 0 l 125 0 l 746 972 l 854 972 z "},"&":{"ha":810,"x_min":68,"x_max":751,"o":"m 301 781 l 301 779 q 315 726 301 748 q 382 612 341 678 l 384 609 q 442 647 417 629 q 497 690 467 664 q 528 726 522 715 q 541 757 539 744 q 543 771 543 761 l 543 778 q 509 852 543 824 q 452 878 490 869 q 422 882 437 882 q 329 845 371 882 q 311 821 313 828 q 301 781 301 807 m 161 233 l 161 232 q 231 108 161 146 q 262 97 256 97 q 304 93 277 93 l 306 93 q 545 194 424 93 q 413 391 486 281 l 354 482 l 353 482 q 282 429 319 460 q 241 393 265 416 q 199 347 212 363 q 165 278 170 304 q 161 233 161 254 m 422 975 q 545 940 485 975 q 624 846 601 907 q 635 774 635 812 q 614 690 635 726 q 591 656 606 674 q 559 621 583 644 q 493 569 518 585 q 433 530 463 547 q 615 258 514 406 q 684 330 640 282 l 751 265 l 731 244 q 669 180 708 218 l 735 83 l 659 29 q 599 117 627 74 l 598 117 q 516 59 553 81 q 311 0 410 0 l 300 0 q 157 45 217 0 q 124 75 147 51 q 73 180 86 116 q 68 227 68 205 l 68 237 q 83 330 68 286 q 110 381 93 354 q 147 429 124 402 q 201 483 174 458 q 256 528 233 510 q 304 561 277 543 q 238 671 271 614 q 217 715 224 694 q 208 781 208 747 q 243 887 208 843 q 271 918 246 895 q 299 939 286 931 q 422 975 357 975 z "},"'":{"ha":293,"x_min":87,"x_max":182,"o":"m 87 746 l 87 1017 l 182 1017 l 182 746 l 87 746 z "},"(":{"ha":511,"x_min":90,"x_max":408,"o":"m 385 1034 l 406 1034 l 408 1032 l 408 941 l 406 940 l 386 940 q 256 819 319 940 q 184 471 184 667 l 184 421 q 271 45 184 202 q 385 -47 328 -47 l 406 -47 l 408 -49 l 408 -140 l 406 -142 l 382 -142 q 195 -14 281 -142 q 90 421 90 166 l 90 471 q 199 911 90 731 q 385 1034 283 1034 z "},")":{"ha":511,"x_min":103,"x_max":421,"o":"m 127 1034 q 313 911 229 1034 q 421 471 421 731 l 421 421 q 316 -14 421 166 q 129 -142 231 -142 l 105 -142 l 103 -140 l 103 -49 l 105 -47 l 126 -47 q 241 45 183 -47 q 327 421 327 202 l 327 471 q 256 819 327 667 q 125 940 193 940 l 105 940 l 103 941 l 103 1032 l 105 1034 l 127 1034 z "},"*":{"ha":695,"x_min":107,"x_max":583,"o":"m 298 1020 l 392 1020 l 393 1019 l 393 851 l 551 908 q 583 819 583 821 l 583 818 l 424 761 l 522 627 l 446 570 l 446 570 l 345 707 l 245 570 l 244 570 l 168 627 l 267 761 q 107 819 263 762 l 138 907 l 139 907 l 298 851 l 298 1020 z "},"+":{"ha":563,"x_min":47,"x_max":529,"o":"m 241 380 l 241 573 l 336 573 l 336 380 l 529 380 l 529 285 l 336 285 l 336 92 l 241 92 l 241 285 l 47 285 l 47 380 l 241 380 z "},",":{"ha":335,"x_min":56,"x_max":218,"o":"m 151 131 q 205 101 184 131 q 218 52 218 82 q 119 -120 218 -32 q 83 -149 92 -144 l 56 -113 q 125 0 125 -50 q 90 33 100 10 q 81 64 81 47 q 112 119 81 97 q 151 131 129 131 z "},"-":{"ha":585,"x_min":52,"x_max":530,"o":"m 52 380 l 530 380 l 530 285 l 52 285 l 52 380 z "},".":{"ha":340,"x_min":102,"x_max":238,"o":"m 170 136 l 171 136 q 222 112 200 136 q 238 71 238 92 l 238 66 q 213 16 238 37 q 170 0 194 0 q 123 19 144 0 q 102 65 102 41 l 102 71 q 125 118 102 96 q 170 136 144 136 z "},"/":{"ha":458,"x_min":1,"x_max":443,"o":"m 349 932 l 443 932 l 443 931 l 96 -34 l 1 -34 l 348 931 l 349 932 z "},":":{"ha":365,"x_min":127,"x_max":262,"o":"m 195 644 q 245 621 224 644 q 262 579 262 601 l 262 574 q 240 526 262 548 q 195 509 220 509 l 194 509 q 137 540 159 509 q 127 574 127 558 l 127 579 q 149 627 127 606 q 195 644 170 644 m 194 136 l 195 136 q 246 112 224 136 q 262 71 262 92 l 262 66 q 237 16 262 37 q 194 0 218 0 q 147 19 168 0 q 127 65 127 41 l 127 71 q 149 118 127 96 q 194 136 169 136 z "},";":{"ha":345,"x_min":81,"x_max":242,"o":"m 174 644 q 225 621 203 644 q 242 579 242 601 l 242 574 q 220 526 242 548 q 174 509 199 509 l 174 509 q 117 540 139 509 q 106 574 106 558 l 106 579 q 129 627 106 606 q 174 644 149 644 m 175 131 q 230 101 208 131 q 242 52 242 82 q 143 -120 242 -32 q 108 -149 116 -144 l 81 -113 q 149 0 149 -50 q 114 33 125 10 q 106 64 106 47 q 136 119 106 97 q 175 131 153 131 z "},"<":{"ha":624,"x_min":79,"x_max":493,"o":"m 433 682 l 493 608 l 256 415 l 178 351 l 256 288 l 493 94 l 433 20 l 201 210 l 79 310 l 79 392 q 245 528 82 395 l 433 682 z "},"=":{"ha":569,"x_min":64,"x_max":505,"o":"m 64 481 l 505 481 l 505 386 l 64 386 l 64 481 m 64 277 l 505 277 l 505 182 l 64 182 l 64 277 z "},">":{"ha":624,"x_min":131,"x_max":545,"o":"m 379 528 q 545 392 542 395 l 545 310 l 423 210 l 191 20 l 131 94 l 368 288 l 446 351 l 368 415 l 131 608 l 191 682 l 379 528 z "},"?":{"ha":695,"x_min":90,"x_max":631,"o":"m 354 136 l 355 136 q 412 104 390 136 q 422 69 422 86 l 422 66 q 397 16 422 37 q 354 0 378 0 q 304 22 326 0 q 287 68 287 42 q 315 123 287 101 q 354 136 333 136 m 356 1019 l 366 1019 q 498 981 433 1019 q 542 947 515 970 q 579 903 571 917 q 608 850 596 880 q 631 739 631 793 l 631 730 q 602 606 631 671 q 570 554 589 581 q 538 519 561 541 q 480 472 513 494 q 431 432 455 454 q 401 375 401 406 l 402 290 l 402 209 l 401 208 l 307 208 l 307 315 l 307 373 q 363 500 307 446 q 427 551 393 526 q 473 587 454 570 q 501 622 496 612 q 522 659 513 639 q 536 734 536 699 l 536 734 q 488 865 536 807 q 460 891 467 887 q 361 924 414 924 l 360 924 q 247 879 298 924 q 220 847 226 858 q 185 735 185 795 l 185 711 l 184 710 l 91 710 l 90 711 l 90 739 q 125 876 90 808 q 152 916 134 892 q 181 947 159 926 q 227 982 207 970 q 356 1019 291 1019 z "},"@":{"ha":1371,"x_min":109,"x_max":1284,"o":"m 507 382 q 545 258 507 313 q 616 205 573 220 q 652 200 635 200 q 749 240 703 200 q 775 269 771 260 q 793 296 787 283 q 812 338 804 315 q 821 378 816 349 q 824 415 824 393 q 786 538 824 484 q 764 564 779 547 q 681 596 725 596 l 677 596 q 583 557 629 596 q 556 528 562 537 q 532 490 543 511 q 507 382 507 437 m 713 993 l 727 993 q 934 952 829 993 q 1003 919 970 937 q 1079 867 1037 900 q 1120 831 1099 852 q 1167 778 1154 795 q 1210 716 1195 742 q 1284 440 1284 587 l 1284 435 q 1249 245 1284 328 q 1214 180 1236 214 q 1124 92 1178 127 q 995 50 1059 50 l 991 50 q 870 92 926 50 q 817 174 833 121 q 772 140 793 151 q 656 106 713 106 l 648 106 q 532 141 589 106 q 496 170 518 149 q 466 205 473 195 q 412 382 412 283 q 457 553 412 472 q 488 596 467 570 q 525 633 509 621 q 678 692 597 692 q 815 644 753 692 q 842 619 825 636 q 874 578 865 594 l 878 572 q 897 621 887 597 l 985 586 q 930 422 954 508 q 914 356 914 366 q 905 307 908 333 q 901 258 901 277 l 901 251 q 917 180 901 206 q 936 162 922 172 q 994 145 963 145 q 1102 195 1046 145 q 1129 225 1123 216 q 1178 330 1164 273 q 1190 437 1190 380 q 1112 693 1190 576 q 1074 742 1099 713 q 1033 782 1055 762 q 972 826 997 812 q 722 898 854 898 l 719 898 q 475 841 590 898 q 420 808 449 828 q 359 761 395 793 q 321 722 329 732 q 279 665 293 688 q 236 578 254 625 q 203 395 203 490 l 203 390 q 291 91 203 226 q 333 38 308 67 q 373 -1 361 7 q 427 -43 405 -29 q 711 -124 554 -124 q 952 -68 846 -124 q 997 -151 996 -149 q 924 -184 967 -168 q 853 -204 896 -194 q 725 -219 783 -219 l 696 -219 q 543 -197 627 -219 q 435 -157 479 -179 q 348 -103 395 -137 q 293 -57 326 -88 q 244 -4 256 -21 q 190 75 210 39 q 158 140 170 109 q 128 230 144 170 q 109 385 109 310 l 109 399 q 153 627 109 514 q 203 723 172 673 q 251 787 222 753 q 292 828 267 805 q 353 879 328 861 q 434 926 391 905 q 521 962 469 945 q 713 993 618 993 z "},"A":{"ha":916,"x_min":24,"x_max":898,"o":"m 509 993 q 531 941 512 993 l 888 23 l 898 1 l 897 0 l 795 0 q 734 154 791 5 q 701 233 705 230 l 217 233 q 145 51 214 229 q 124 0 127 4 l 26 0 l 24 1 l 24 1 l 411 993 l 509 993 m 459 857 l 254 329 l 666 329 l 460 857 l 459 857 z "},"B":{"ha":780,"x_min":117,"x_max":720,"o":"m 119 993 l 417 993 q 646 887 562 993 q 688 749 688 827 l 688 731 q 589 528 688 609 l 589 528 q 677 452 633 508 q 720 307 720 392 l 720 275 q 567 26 720 103 q 459 1 500 1 l 214 0 l 119 0 l 117 2 l 117 991 l 119 993 m 212 898 l 212 566 l 410 566 q 575 654 521 566 q 593 732 593 688 l 593 749 q 481 889 593 852 q 418 898 450 898 l 212 898 m 212 471 l 212 95 l 219 95 l 453 96 q 549 125 497 96 q 625 276 625 174 l 625 309 q 503 461 625 422 q 429 471 467 471 l 212 471 z "},"C":{"ha":955,"x_min":66,"x_max":910,"o":"m 513 993 l 522 993 q 833 852 694 993 q 909 741 895 779 q 825 699 828 699 q 779 770 808 733 q 519 898 666 898 l 515 898 q 249 761 362 898 q 161 500 161 642 l 161 493 q 275 201 161 328 q 519 95 382 95 q 783 227 669 95 q 827 296 810 265 l 910 253 q 828 135 895 212 q 516 0 691 0 q 187 156 330 0 q 66 493 66 307 l 66 500 q 208 859 66 704 q 513 993 345 993 z "},"D":{"ha":902,"x_min":117,"x_max":839,"o":"m 212 898 l 212 95 l 346 95 q 680 275 557 95 q 743 496 743 381 q 611 800 743 671 q 535 853 570 834 q 359 898 448 898 l 212 898 m 119 993 l 359 993 q 668 876 529 993 q 745 789 731 816 q 839 496 839 656 q 703 151 839 302 q 345 0 558 0 l 119 0 l 117 2 l 117 991 l 119 993 z "},"E":{"ha":684,"x_min":117,"x_max":611,"o":"m 117 993 l 610 993 l 611 992 l 611 899 l 610 898 l 212 898 l 212 544 l 530 544 l 531 543 l 531 450 l 530 449 l 212 449 l 212 95 l 610 95 l 611 94 l 611 1 l 610 0 l 117 0 l 117 1 l 117 992 l 117 993 z "},"F":{"ha":644,"x_min":117,"x_max":610,"o":"m 117 993 l 610 993 l 610 992 l 610 899 l 610 898 l 212 898 l 212 544 l 547 544 l 547 543 l 547 450 l 547 449 l 212 449 l 212 1 l 211 0 l 117 0 l 117 1 l 117 992 l 117 993 z "},"G":{"ha":1055,"x_min":62,"x_max":982,"o":"m 517 993 l 526 993 q 842 852 701 993 q 922 741 895 793 l 925 732 q 840 690 844 690 l 840 690 q 773 786 825 727 q 524 898 663 898 l 518 898 q 249 764 366 898 q 157 500 157 644 l 157 493 q 249 229 157 348 q 521 95 364 95 q 759 193 653 95 q 829 283 814 250 q 867 372 848 312 q 879 422 873 393 l 607 422 l 605 424 l 605 515 l 607 517 l 980 517 l 982 515 q 962 353 982 437 q 787 91 912 189 q 521 0 663 0 q 209 132 346 0 q 127 240 153 191 q 62 492 62 361 l 62 500 q 193 844 62 694 q 292 927 252 905 q 517 993 400 993 z "},"H":{"ha":861,"x_min":117,"x_max":745,"o":"m 119 993 l 210 993 l 212 991 l 212 545 l 650 545 l 650 991 l 651 993 l 743 993 l 745 991 l 745 2 l 743 0 l 651 0 l 650 2 l 650 450 l 212 450 l 212 2 l 210 0 l 119 0 l 117 2 l 117 991 l 119 993 z "},"I":{"ha":328,"x_min":117,"x_max":212,"o":"m 117 993 l 211 993 l 212 992 l 212 1 l 211 0 l 117 0 l 117 1 l 117 992 l 117 993 z "},"J":{"ha":693,"x_min":5,"x_max":578,"o":"m 487 993 l 578 993 l 578 992 l 578 283 q 534 127 578 201 q 496 79 521 105 q 464 50 474 56 q 436 31 452 41 q 402 16 418 22 q 325 0 360 0 l 258 0 q 166 22 216 0 q 28 168 73 67 q 5 279 5 224 l 5 332 l 5 332 l 96 332 l 97 332 l 97 282 q 140 158 97 216 q 175 124 158 136 q 262 92 218 92 l 321 92 q 420 133 372 92 q 446 162 441 154 q 486 288 486 217 l 486 992 l 487 993 z "},"K":{"ha":854,"x_min":117,"x_max":822,"o":"m 119 993 l 210 993 l 212 991 l 212 441 l 690 990 l 693 993 l 817 993 l 817 991 l 404 515 l 404 514 l 822 1 l 821 0 l 696 0 l 412 352 l 340 441 q 212 294 217 302 l 212 2 l 210 0 l 119 0 l 117 2 l 117 991 l 119 993 z "},"L":{"ha":649,"x_min":117,"x_max":637,"o":"m 117 993 l 211 993 l 212 992 l 212 95 l 637 95 l 637 0 l 117 0 l 117 1 l 117 992 l 117 993 z "},"M":{"ha":1192,"x_min":117,"x_max":1075,"o":"m 119 993 l 245 993 q 280 909 247 993 l 595 140 l 596 140 l 946 993 l 1073 993 l 1075 991 l 1075 2 l 1073 0 l 977 0 l 975 2 l 975 811 l 974 811 l 642 1 l 641 0 l 552 0 q 522 69 549 0 q 297 619 520 71 q 218 812 228 785 l 217 812 l 217 2 l 215 0 l 119 0 l 117 2 l 117 991 l 119 993 z "},"N":{"ha":964,"x_min":117,"x_max":848,"o":"m 119 993 l 235 993 q 598 401 241 987 l 751 150 l 753 150 l 753 991 l 754 993 l 846 993 l 848 991 l 848 2 l 846 0 l 734 0 q 683 81 724 11 q 320 675 680 85 l 216 843 l 216 2 l 214 0 l 119 0 l 117 2 l 117 991 l 119 993 z "},"O":{"ha":1046,"x_min":67,"x_max":985,"o":"m 524 993 l 528 993 q 839 861 701 993 q 907 774 890 806 q 985 499 985 647 l 985 494 q 841 134 985 289 q 526 0 703 0 q 214 132 352 0 q 140 229 153 198 q 67 492 67 352 l 67 501 q 187 832 67 682 q 256 899 235 884 q 524 993 381 993 m 162 500 l 162 493 q 279 201 162 328 q 527 95 389 95 q 806 239 689 95 q 890 494 890 356 l 890 499 q 773 792 890 665 q 526 898 664 898 q 257 767 372 898 q 162 500 162 647 z "},"P":{"ha":795,"x_min":117,"x_max":754,"o":"m 119 993 l 430 993 q 678 879 573 993 q 754 674 754 783 l 754 664 q 660 441 754 540 q 431 345 559 345 l 212 345 l 212 2 l 210 0 l 119 0 l 117 2 l 117 991 l 119 993 m 212 898 l 212 441 l 430 441 q 618 536 542 441 q 659 665 659 599 l 659 673 q 570 850 659 777 q 429 898 506 898 l 212 898 z "},"Q":{"ha":1059,"x_min":67,"x_max":998,"o":"m 525 993 l 528 993 q 839 861 701 993 q 907 773 890 805 q 985 499 985 646 l 985 494 q 876 174 985 319 l 876 173 q 998 50 932 118 l 930 -16 l 810 105 q 526 0 682 0 q 214 131 352 0 q 140 228 153 198 q 67 492 67 352 l 67 500 q 187 832 67 682 q 256 899 235 884 q 525 993 381 993 m 162 500 l 162 493 q 279 201 162 328 q 528 95 389 95 q 741 172 643 95 l 742 173 l 742 174 l 637 279 l 704 346 l 705 346 l 809 242 q 890 494 890 358 l 890 499 q 773 792 890 665 q 526 898 665 898 q 257 767 372 898 q 162 500 162 646 z "},"R":{"ha":787,"x_min":117,"x_max":754,"o":"m 119 993 l 430 993 q 678 879 573 993 q 754 674 754 783 l 754 664 q 648 429 754 532 q 538 364 591 381 l 746 2 l 745 1 l 634 1 q 553 142 629 5 l 439 345 l 212 345 l 212 2 l 210 0 l 119 0 l 117 2 l 117 991 l 119 993 m 212 898 l 212 441 l 430 441 q 618 536 542 441 q 659 665 659 599 l 659 673 q 570 850 659 777 q 429 898 506 898 l 212 898 z "},"S":{"ha":705,"x_min":48,"x_max":655,"o":"m 357 1005 l 368 1005 q 505 969 437 1005 q 551 937 526 957 q 581 909 562 928 q 617 861 606 880 q 632 834 627 847 l 632 833 l 546 794 q 511 844 537 814 q 363 910 448 910 l 361 910 q 222 860 278 910 q 195 827 202 840 q 165 726 165 781 q 200 635 165 667 q 261 595 226 611 q 455 535 322 566 q 513 513 490 526 q 572 472 543 498 q 603 439 596 449 q 622 409 615 422 q 654 283 654 348 l 654 281 l 655 278 l 654 275 l 654 273 q 617 132 654 202 q 471 7 569 46 q 361 -14 414 -14 l 349 -14 q 212 20 282 -14 q 164 50 190 31 q 96 119 126 79 q 60 178 75 149 q 48 205 48 203 q 136 241 51 206 q 170 180 150 208 q 199 146 177 169 q 247 110 227 119 q 354 81 298 81 l 357 81 q 481 120 423 81 q 511 146 494 128 q 550 216 538 178 q 559 277 559 248 l 559 279 q 511 399 559 350 q 471 427 486 421 q 443 439 462 433 q 373 458 429 444 q 201 519 260 487 q 71 723 71 588 l 71 728 q 121 888 71 814 q 151 924 130 901 q 194 958 176 947 q 258 989 222 977 q 357 1005 309 1005 z "},"T":{"ha":648,"x_min":10,"x_max":637,"o":"m 11 993 l 637 993 l 637 992 l 637 899 l 637 898 l 372 898 l 372 1 l 371 0 l 277 0 l 277 1 l 277 898 l 11 898 l 10 899 l 10 992 l 11 993 z "},"U":{"ha":941,"x_min":115,"x_max":826,"o":"m 117 993 l 208 993 l 210 991 l 210 355 q 324 121 210 197 q 423 95 374 95 l 517 95 q 686 190 620 95 q 730 365 730 258 l 730 991 l 732 993 l 824 993 l 826 991 l 826 365 q 669 43 826 145 q 519 0 596 0 l 422 0 q 216 86 307 0 q 115 354 115 193 l 115 991 l 117 993 z "},"V":{"ha":927,"x_min":23,"x_max":904,"o":"m 129 993 l 170 889 l 464 137 l 465 137 l 711 772 l 798 992 l 798 993 l 902 993 l 903 992 l 904 992 l 517 12 l 511 0 l 416 0 q 355 151 414 0 l 23 992 l 24 993 l 129 993 z "},"W":{"ha":1289,"x_min":41,"x_max":1246,"o":"m 142 993 q 155 949 145 993 l 349 189 l 351 189 l 559 840 l 609 993 l 678 993 q 707 905 680 992 l 937 189 l 939 189 l 1143 992 l 1144 993 l 1244 993 l 1246 992 l 1246 992 l 994 18 q 987 0 989 0 l 900 0 q 880 57 897 0 l 644 791 l 644 791 l 389 0 l 300 0 q 274 100 298 0 l 41 992 l 42 993 l 142 993 z "},"X":{"ha":884,"x_min":33,"x_max":850,"o":"m 174 993 q 441 585 375 688 l 442 585 l 710 993 l 827 993 l 827 992 q 511 515 578 614 l 850 2 l 848 0 l 729 0 q 675 80 725 3 l 443 436 l 442 436 l 165 14 q 155 0 157 0 l 35 0 l 33 2 l 374 514 l 56 992 l 58 993 l 174 993 z "},"Y":{"ha":809,"x_min":20,"x_max":791,"o":"m 20 993 l 137 993 q 402 588 149 977 l 406 585 l 674 993 l 789 993 l 791 991 l 456 487 l 456 2 l 454 0 l 357 0 l 355 2 l 355 487 l 20 991 l 20 993 z "},"Z":{"ha":808,"x_min":40,"x_max":779,"o":"m 114 993 l 777 993 l 779 991 l 412 411 l 212 95 l 751 95 l 752 93 l 752 2 l 751 0 l 42 0 l 40 2 l 398 568 l 606 898 l 114 898 l 112 900 l 112 991 l 114 993 z "},"[":{"ha":528,"x_min":129,"x_max":379,"o":"m 130 1027 l 378 1027 l 379 1027 l 379 932 l 378 932 l 224 932 l 224 -20 l 378 -20 l 379 -20 l 379 -115 l 378 -115 l 130 -115 l 129 -115 l 129 1027 l 130 1027 z "},"\\":{"ha":458,"x_min":1,"x_max":443,"o":"m 96 931 l 443 -34 l 348 -34 l 1 931 l 1 932 l 95 932 l 96 931 z "},"]":{"ha":528,"x_min":149,"x_max":399,"o":"m 399 1027 l 399 -115 l 399 -115 l 150 -115 l 149 -115 l 149 -20 l 150 -20 l 304 -20 l 304 932 l 150 932 l 149 932 l 149 1027 l 150 1027 l 399 1027 l 399 1027 z "},"^":{"ha":631,"x_min":46,"x_max":585,"o":"m 356 949 l 385 905 l 528 671 l 585 579 l 585 578 l 505 529 l 504 529 q 387 720 412 677 q 315 835 385 721 l 167 593 l 127 528 l 46 578 l 46 579 l 214 852 l 275 949 l 356 949 z "},"_":{"ha":739,"x_min":47,"x_max":692,"o":"m 47 -14 l 692 -14 l 692 -109 l 47 -109 l 47 -14 z "},"`":{"ha":602,"x_min":164,"x_max":437,"o":"m 214 1305 l 437 1167 l 387 1086 l 164 1225 l 214 1305 z "},"a":{"ha":795,"x_min":62,"x_max":694,"o":"m 383 651 q 596 541 517 651 l 598 537 l 599 537 l 599 643 l 600 645 l 692 645 l 694 643 l 694 2 l 692 0 l 600 0 l 599 2 l 599 106 l 598 106 q 377 -6 525 -6 l 377 -5 l 376 -6 q 145 100 244 -6 q 62 318 62 199 l 62 326 q 154 554 62 454 q 383 651 250 651 m 157 325 l 157 321 q 248 134 157 208 q 375 90 305 90 q 578 234 522 90 q 593 318 593 276 l 593 333 q 556 456 593 392 q 386 555 492 555 q 177 419 242 555 q 157 325 157 371 z "},"b":{"ha":800,"x_min":104,"x_max":735,"o":"m 106 993 l 197 993 l 199 991 l 199 537 l 199 537 q 256 600 208 557 q 414 651 325 651 q 680 509 579 651 q 735 330 735 421 l 735 315 q 643 89 735 191 q 554 24 594 43 q 423 -6 486 -6 l 422 -5 l 419 -6 q 199 106 273 -6 l 199 106 l 199 1 l 197 0 l 106 0 l 104 1 l 104 991 l 106 993 m 204 330 l 204 322 q 295 128 204 204 q 425 90 348 90 q 604 192 532 90 q 640 316 640 255 l 640 327 q 557 505 640 429 q 412 555 498 555 q 224 422 286 555 q 204 330 204 372 z "},"c":{"ha":679,"x_min":61,"x_max":634,"o":"m 365 649 l 382 649 q 574 574 482 649 q 632 507 618 532 l 553 454 q 434 545 511 519 q 378 554 406 554 l 368 554 q 218 484 286 554 q 156 322 156 413 l 156 319 q 229 148 156 222 q 374 89 294 89 q 544 176 473 89 l 554 191 l 634 139 q 467 9 575 47 q 374 -6 418 -6 q 161 81 256 -6 q 61 318 61 184 l 61 326 q 161 562 61 459 q 365 649 256 649 z "},"d":{"ha":800,"x_min":65,"x_max":696,"o":"m 603 993 l 694 993 l 696 991 l 696 1 l 694 0 l 603 0 l 602 1 l 602 106 l 601 106 q 380 -6 528 -6 l 380 -5 l 378 -6 q 148 100 247 -6 q 65 318 65 199 l 65 326 q 157 554 65 454 q 386 651 253 651 q 599 541 519 651 l 601 537 l 602 537 l 602 991 l 603 993 m 160 325 l 160 321 q 251 134 160 208 q 378 90 308 90 q 581 234 525 90 q 596 318 596 276 l 596 333 q 559 456 596 392 q 389 555 495 555 q 180 419 245 555 q 160 325 160 371 z "},"e":{"ha":715,"x_min":45,"x_max":660,"o":"m 355 650 q 594 527 494 650 q 660 338 660 430 l 660 330 q 656 298 660 298 l 141 298 q 168 207 141 266 q 286 101 209 131 q 353 89 323 89 q 513 170 446 89 q 545 222 537 202 l 546 222 q 632 185 601 200 q 566 85 617 142 q 353 -6 472 -6 q 111 118 212 -6 q 45 318 45 212 l 45 324 q 142 562 45 460 q 355 650 233 650 m 151 392 l 556 392 q 460 523 528 481 q 352 555 410 555 q 183 463 253 555 q 151 392 161 431 z "},"f":{"ha":382,"x_min":18,"x_max":402,"o":"m 382 993 l 401 993 l 402 992 l 402 899 l 401 898 l 387 898 q 258 810 302 898 q 229 649 229 749 l 229 644 l 401 644 l 402 644 l 402 550 l 401 549 l 229 549 l 229 1 l 229 0 l 135 0 l 134 1 l 134 549 l 19 549 l 18 550 l 18 644 l 19 644 l 134 644 l 134 657 q 202 901 134 808 q 229 930 210 911 q 269 961 252 951 q 307 979 287 972 q 382 993 345 993 z "},"g":{"ha":733,"x_min":65,"x_max":654,"o":"m 178 412 l 178 406 q 209 322 178 363 q 234 298 225 304 q 336 264 279 264 q 446 305 398 264 q 494 409 494 350 q 451 508 494 464 q 404 540 429 529 q 337 554 370 554 l 334 554 q 248 530 289 554 q 216 504 235 523 q 189 463 197 482 q 178 412 178 437 m 160 -77 l 160 -78 q 208 -157 160 -121 q 359 -197 267 -197 q 504 -158 444 -197 q 530 -135 515 -151 q 559 -71 559 -102 l 559 -68 q 533 -12 559 -37 q 479 17 513 7 q 399 28 437 28 l 334 28 q 244 34 283 28 q 201 0 227 24 q 160 -77 160 -42 m 335 649 q 486 602 417 649 q 509 624 501 618 q 555 644 534 640 q 589 649 572 649 l 610 649 l 610 648 l 610 555 l 610 554 l 593 554 q 560 542 572 554 q 555 530 555 535 q 576 484 566 512 q 589 409 589 446 q 522 246 589 317 q 481 212 494 220 q 435 188 461 199 q 338 169 387 169 l 334 169 q 220 195 276 169 q 208 161 208 179 q 218 141 208 145 q 342 122 245 122 l 390 123 q 595 61 522 123 q 621 33 614 43 q 654 -70 654 -16 q 619 -176 654 -124 q 588 -212 611 -189 q 549 -242 564 -233 q 507 -264 530 -254 q 453 -282 479 -275 q 371 -292 406 -292 l 348 -292 q 224 -271 288 -292 q 167 -244 192 -259 q 129 -216 149 -233 q 102 -186 111 -197 q 65 -81 65 -134 l 65 -73 q 109 41 65 -18 q 142 73 126 62 l 146 77 q 113 161 113 109 l 113 163 q 142 250 113 210 q 144 252 144 251 q 117 287 129 269 q 83 409 83 345 q 145 567 83 497 q 176 595 168 591 q 220 623 197 611 q 335 649 276 649 z "},"h":{"ha":767,"x_min":104,"x_max":667,"o":"m 106 993 l 197 993 l 199 991 l 199 571 q 386 646 275 646 q 648 503 584 646 q 667 408 667 459 l 667 2 l 665 0 l 574 0 l 572 2 l 572 408 q 448 546 572 519 q 397 550 431 550 l 370 550 q 211 471 256 550 q 199 401 199 439 l 199 2 l 197 0 l 106 0 l 104 2 l 104 991 l 106 993 z "},"i":{"ha":316,"x_min":90,"x_max":226,"o":"m 111 644 l 205 644 l 205 644 l 205 1 l 205 0 l 111 0 l 111 1 l 111 644 l 111 644 m 155 993 l 161 993 q 208 971 186 993 q 226 927 226 950 l 226 924 q 201 873 226 895 q 160 857 182 857 l 156 857 q 104 884 126 857 q 90 922 90 903 l 90 928 q 112 975 90 954 q 155 993 133 993 z "},"j":{"ha":334,"x_min":-29,"x_max":243,"o":"m 128 644 l 222 644 l 223 644 l 223 55 q 199 -114 223 -47 q 173 -172 187 -149 q 138 -220 163 -193 q 112 -244 119 -240 q -29 -292 51 -292 l -29 -199 l -28 -198 q 83 -138 41 -198 q 110 -83 98 -115 q 127 40 127 -26 l 127 644 l 128 644 m 173 993 l 178 993 q 226 971 203 993 q 243 927 243 950 l 243 924 q 219 873 243 895 q 178 857 199 857 l 174 857 q 122 884 144 857 q 108 922 108 903 l 108 928 q 130 975 108 954 q 173 993 151 993 z "},"k":{"ha":684,"x_min":104,"x_max":658,"o":"m 106 993 l 197 993 l 199 991 l 199 336 l 521 645 l 656 645 l 656 644 l 368 366 l 658 1 l 657 0 l 534 0 q 330 261 528 7 l 298 299 q 199 204 200 204 l 199 2 l 197 0 l 106 0 l 104 2 l 104 991 l 106 993 z "},"l":{"ha":302,"x_min":104,"x_max":199,"o":"m 104 993 l 198 993 l 199 992 l 199 1 l 198 0 l 104 0 l 104 1 l 104 992 l 104 993 z "},"m":{"ha":1234,"x_min":104,"x_max":1134,"o":"m 382 644 l 393 644 q 619 551 544 644 q 842 644 694 644 l 861 644 q 1112 511 1044 644 q 1134 414 1134 464 l 1134 2 l 1133 0 l 1041 0 l 1039 2 l 1039 412 q 958 533 1039 494 q 865 549 918 549 l 842 549 q 677 463 715 549 q 667 400 667 439 l 667 2 l 665 0 l 573 0 l 572 2 l 572 408 q 469 541 572 507 q 376 549 446 549 q 250 514 292 549 q 199 402 199 481 l 199 2 l 197 0 l 106 0 l 104 2 l 104 633 l 106 635 l 197 635 l 199 633 l 199 570 q 382 644 273 644 z "},"n":{"ha":767,"x_min":104,"x_max":667,"o":"m 382 644 l 393 644 q 650 498 584 644 q 667 408 667 455 l 667 2 l 665 0 l 573 0 l 572 2 l 572 408 q 469 541 572 507 q 376 549 446 549 q 250 514 292 549 q 199 402 199 481 l 199 2 l 197 0 l 106 0 l 104 2 l 104 633 l 106 635 l 197 635 l 199 633 l 199 570 q 382 644 273 644 z "},"o":{"ha":748,"x_min":61,"x_max":687,"o":"m 365 649 l 382 649 q 581 568 487 649 q 687 321 687 465 q 575 71 687 176 q 374 -6 483 -6 q 161 81 256 -6 q 61 318 61 184 l 61 326 q 161 562 61 459 q 365 649 256 649 m 156 322 l 156 319 q 228 149 156 223 q 374 89 294 89 q 549 182 476 89 q 592 322 592 249 q 515 499 592 425 q 378 554 452 554 l 368 554 q 217 484 287 554 q 156 322 156 413 z "},"p":{"ha":800,"x_min":104,"x_max":735,"o":"m 420 651 l 420 650 l 422 650 l 422 651 q 635 564 540 651 q 704 467 684 512 q 735 330 735 396 l 735 315 q 641 87 735 191 q 414 -6 545 -6 q 201 104 281 -6 l 199 107 l 199 107 l 199 -290 l 197 -292 l 106 -292 l 104 -290 l 104 634 l 106 635 l 197 635 l 199 634 l 199 538 q 420 651 274 651 m 204 322 l 204 315 q 264 158 204 233 q 413 90 324 90 q 615 214 549 90 q 640 318 640 266 l 640 328 q 568 495 640 421 q 423 555 505 555 q 220 413 276 555 q 204 322 204 370 z "},"q":{"ha":800,"x_min":65,"x_max":696,"o":"m 378 651 l 378 650 l 380 651 l 380 651 q 601 538 528 651 l 602 538 l 602 634 l 604 636 l 695 636 l 696 634 l 696 -290 l 695 -292 l 604 -292 l 602 -290 l 602 107 l 601 107 q 549 50 593 89 q 387 -6 479 -6 q 121 135 222 -6 q 65 319 65 222 l 65 327 q 175 573 65 468 q 378 651 267 651 m 160 323 l 160 319 q 235 146 160 220 q 389 90 296 90 q 558 187 494 90 q 596 312 596 252 l 596 327 q 527 498 596 422 q 376 555 470 555 q 197 454 269 555 q 160 323 160 392 z "},"r":{"ha":524,"x_min":104,"x_max":500,"o":"m 374 649 q 500 617 447 649 l 479 516 l 479 516 q 368 551 418 551 q 209 447 254 551 q 199 395 199 422 l 199 2 l 197 0 l 106 0 l 104 2 l 104 634 l 106 636 l 197 636 l 199 634 l 199 579 l 199 579 q 287 637 229 621 q 374 649 332 649 z "},"s":{"ha":612,"x_min":55,"x_max":556,"o":"m 307 654 l 317 654 q 448 621 386 654 q 492 592 469 611 q 525 558 513 574 q 535 543 535 545 q 454 494 473 507 l 453 494 q 416 530 441 513 q 311 559 372 559 q 195 524 240 559 q 165 465 165 497 q 184 427 165 440 q 205 414 192 420 q 307 382 235 399 q 393 365 341 375 q 449 346 427 357 q 490 321 469 336 q 515 297 496 317 q 556 193 556 249 l 556 189 q 512 75 556 128 q 484 48 494 56 q 445 24 463 33 q 311 -7 380 -7 l 302 -7 q 158 30 227 -7 q 55 134 92 68 q 94 156 56 135 l 138 180 q 229 102 169 125 q 307 88 266 88 q 414 116 367 88 q 439 135 424 121 q 461 191 461 161 q 405 262 461 235 q 366 274 391 268 q 195 315 257 293 q 70 464 70 361 l 70 466 q 117 580 70 528 q 148 607 139 602 q 218 641 178 629 q 307 654 263 654 z "},"t":{"ha":462,"x_min":22,"x_max":418,"o":"m 130 993 l 224 993 l 224 992 l 224 644 l 399 644 l 400 644 l 400 549 l 399 549 l 224 549 l 224 176 q 239 125 224 149 q 277 98 253 106 q 296 95 288 95 l 300 95 q 371 113 326 95 l 379 117 q 418 30 414 41 q 379 14 408 24 q 304 0 332 0 l 293 0 q 217 21 257 0 q 142 106 163 50 q 130 182 130 141 l 130 549 l 23 549 l 22 549 l 22 644 l 23 644 l 130 644 l 130 993 z "},"u":{"ha":766,"x_min":100,"x_max":663,"o":"m 102 644 l 193 644 l 195 642 l 195 237 q 309 101 195 131 q 386 95 332 95 q 490 113 455 95 q 559 183 542 138 q 568 244 568 214 l 568 642 l 570 644 l 661 644 l 663 642 l 663 12 l 661 9 l 570 9 l 568 12 l 568 75 q 380 0 494 0 q 192 52 259 0 q 100 234 100 121 l 100 642 l 102 644 z "},"v":{"ha":702,"x_min":23,"x_max":679,"o":"m 130 644 q 351 134 132 644 q 451 366 352 135 l 572 644 l 677 644 l 679 642 l 397 0 l 306 0 q 282 52 303 1 l 23 644 l 24 644 l 130 644 z "},"w":{"ha":1021,"x_min":36,"x_max":986,"o":"m 140 644 q 161 584 142 644 l 310 146 l 311 146 l 475 643 l 476 644 l 545 644 q 569 575 548 644 q 711 146 595 498 l 713 146 l 882 644 l 984 644 l 986 642 l 764 0 l 661 0 q 623 110 658 0 l 511 448 l 511 448 l 362 0 l 260 0 q 232 77 255 7 l 36 643 l 37 644 l 140 644 z "},"x":{"ha":714,"x_min":28,"x_max":684,"o":"m 47 644 l 171 644 l 357 403 q 519 614 366 416 q 543 644 538 640 l 665 644 l 665 642 l 425 334 l 425 334 q 684 1 437 319 l 684 0 l 561 0 l 356 267 l 151 0 l 30 0 l 28 2 l 288 334 l 288 336 l 47 644 l 47 644 z "},"y":{"ha":692,"x_min":23,"x_max":669,"o":"m 130 644 q 161 573 132 644 l 345 134 q 425 315 348 137 q 566 644 564 644 l 669 644 l 669 644 l 308 -197 l 267 -292 l 164 -292 l 164 -292 l 294 13 l 23 644 l 24 644 l 130 644 z "},"z":{"ha":665,"x_min":60,"x_max":610,"o":"m 98 644 l 610 644 l 610 644 l 239 95 l 593 95 l 595 94 l 595 2 l 593 0 l 60 0 l 60 2 l 431 549 l 98 549 l 96 551 l 96 642 l 98 644 z "},"{":{"ha":557,"x_min":106,"x_max":433,"o":"m 237 428 q 286 321 286 378 l 286 2 q 332 -75 286 -54 q 397 -89 366 -89 l 431 -88 l 433 -89 l 433 -181 l 431 -183 l 399 -184 q 217 -97 277 -184 q 191 -1 191 -52 l 191 320 q 160 369 191 345 q 106 395 140 382 l 106 396 l 106 460 l 106 461 q 160 487 140 473 q 191 536 191 511 l 191 857 q 217 953 191 907 q 399 1040 277 1040 l 431 1039 l 433 1037 l 433 945 l 431 944 l 397 945 q 332 931 366 945 q 286 854 286 910 l 286 534 q 237 428 286 477 z "},"|":{"ha":298,"x_min":102,"x_max":197,"o":"m 102 1 l 102 949 l 197 949 l 197 1 l 102 1 z "},"}":{"ha":557,"x_min":125,"x_max":452,"o":"m 320 428 q 271 534 271 477 l 271 854 q 225 931 271 910 q 161 945 192 945 l 126 944 l 125 945 l 125 1037 l 126 1039 l 159 1040 q 340 953 281 1040 q 366 857 366 907 l 366 536 q 397 487 366 511 q 451 461 417 473 l 452 460 l 452 396 l 451 395 q 397 369 417 382 q 366 320 366 345 l 366 -1 q 340 -97 366 -52 q 159 -184 281 -184 l 126 -183 l 125 -181 l 125 -89 l 126 -88 l 161 -89 q 225 -75 192 -89 q 271 2 271 -54 l 271 321 q 320 428 271 378 z "},"~":{"ha":478,"x_min":41,"x_max":439,"o":"m 439 326 q 398 292 418 303 q 336 275 366 275 q 240 308 303 275 q 144 340 176 340 q 86 321 117 340 q 41 279 66 309 l 41 384 q 83 418 62 408 q 144 436 115 436 q 242 402 179 436 q 336 369 306 369 q 394 388 363 369 q 439 431 414 401 l 439 326 z "},"¡":{"ha":446,"x_min":130,"x_max":265,"o":"m 198 857 l 197 857 q 146 881 168 857 q 130 922 130 901 l 130 926 q 155 977 130 956 q 198 993 174 993 q 245 974 224 993 q 265 928 265 952 l 265 922 q 243 875 265 897 q 198 857 223 857 m 258 0 l 137 0 l 136 1 l 150 772 l 245 772 l 258 1 l 258 0 z "},"¢":{"ha":679,"x_min":61,"x_max":634,"o":"m 300 794 l 300 878 l 301 879 l 395 879 l 395 878 l 395 802 q 574 728 488 798 q 632 661 618 685 l 553 608 q 434 699 511 673 q 395 707 414 705 l 395 243 q 544 330 481 252 l 554 344 l 634 292 q 467 162 575 200 q 395 148 430 151 l 395 71 l 300 71 l 300 156 q 161 234 225 175 q 61 471 61 337 l 61 479 q 161 715 61 612 q 300 794 227 776 m 300 256 l 300 694 q 218 637 257 677 q 156 475 156 566 l 156 472 q 229 301 156 375 q 300 256 263 271 z "},"£":{"ha":824,"x_min":36,"x_max":756,"o":"m 452 947 q 606 900 533 947 q 640 873 621 890 l 642 871 l 642 870 l 574 804 q 519 838 548 828 q 452 852 485 852 q 328 801 387 852 q 293 712 293 767 l 293 711 q 328 587 293 655 q 353 533 344 554 l 575 533 l 576 532 l 576 439 l 575 438 l 376 438 l 377 437 l 377 425 q 264 186 377 315 l 271 186 q 427 123 363 186 q 532 78 481 78 q 687 167 603 78 l 688 167 l 756 101 q 530 -17 646 -17 q 361 54 444 -17 q 323 81 338 76 q 272 91 300 91 q 113 36 204 91 l 95 24 l 36 98 q 105 159 75 132 q 181 235 162 213 q 282 424 282 347 l 282 428 l 281 438 l 127 438 l 126 439 l 126 532 l 127 533 l 248 533 q 219 598 229 571 q 198 707 198 657 l 198 715 q 233 836 198 781 q 262 870 241 848 q 452 947 349 947 z "},"¤":{"ha":908,"x_min":43,"x_max":867,"o":"m 141 506 l 141 498 q 194 327 141 409 q 224 288 206 309 q 264 252 253 260 q 326 216 294 229 q 455 188 387 188 q 656 260 566 188 q 698 303 686 288 q 722 336 713 321 q 769 498 769 414 l 769 505 q 718 675 769 594 q 681 720 705 694 q 640 756 653 747 q 584 789 615 774 q 454 817 521 817 q 267 753 353 817 q 230 721 253 744 q 193 675 205 694 q 173 641 180 656 q 141 506 141 574 m 455 911 q 699 831 587 911 l 715 819 l 799 905 l 799 906 l 800 906 l 867 840 l 781 750 q 824 680 808 713 q 865 503 865 594 q 795 273 865 379 l 785 260 q 867 175 806 239 l 800 109 l 720 191 q 640 136 680 157 q 460 93 551 93 l 450 93 q 267 138 357 93 q 214 171 243 151 l 189 191 l 111 109 l 43 175 l 125 260 q 85 328 96 301 q 45 503 45 410 q 114 728 45 623 l 129 750 l 43 840 q 111 906 111 906 l 195 819 q 240 850 221 840 q 455 911 340 911 z "},"¥":{"ha":794,"x_min":43,"x_max":753,"o":"m 115 917 q 271 732 120 911 l 398 583 l 535 745 l 681 917 l 753 855 l 559 626 l 446 492 l 446 447 l 675 447 l 675 353 l 674 352 l 446 352 l 446 305 l 674 305 l 675 304 l 675 211 l 674 210 l 446 210 l 446 1 l 351 1 l 351 210 l 122 210 l 121 211 l 121 304 l 122 305 l 351 305 l 351 352 l 122 352 l 121 353 l 121 447 l 351 447 l 351 491 l 145 734 l 43 855 l 115 917 z "},"¦":{"ha":366,"x_min":136,"x_max":231,"o":"m 136 -339 l 136 102 l 231 102 l 231 -339 l 136 -339 m 136 576 l 136 1017 l 231 1017 l 231 576 l 136 576 z "},"§":{"ha":595,"x_min":80,"x_max":519,"o":"m 175 495 l 175 494 q 218 408 175 445 q 298 381 256 381 l 301 381 q 391 417 351 381 q 425 494 425 451 l 425 495 q 387 574 425 540 q 299 608 349 608 q 210 573 249 608 q 175 495 175 538 m 304 991 q 468 920 401 991 q 503 869 494 890 q 416 827 418 827 q 399 854 411 840 q 304 897 361 897 q 226 876 261 897 q 184 804 184 848 l 184 804 q 214 748 184 768 q 275 718 232 734 q 361 694 312 705 q 471 626 428 675 q 498 586 489 602 q 519 499 519 541 l 519 490 q 487 385 519 437 q 429 326 463 349 q 463 299 445 316 q 510 189 510 252 l 510 181 q 479 84 510 131 q 453 54 472 73 q 377 10 418 24 q 301 -3 336 -3 l 290 -3 q 176 31 231 -3 q 96 121 122 67 l 182 161 q 199 136 188 149 q 294 93 237 93 l 297 93 q 374 113 339 93 q 415 184 415 140 l 415 185 q 387 239 415 219 q 368 252 377 247 q 292 281 340 267 q 240 294 270 288 q 195 311 212 302 q 146 345 176 320 q 119 376 126 365 q 80 490 80 431 l 80 499 q 110 600 80 549 q 136 633 119 614 q 170 663 156 653 q 89 804 89 715 q 140 928 89 874 q 189 964 168 955 q 304 991 241 991 z "},"¨":{"ha":694,"x_min":164,"x_max":530,"o":"m 232 1238 q 283 1215 261 1238 q 300 1173 300 1194 l 300 1168 q 277 1120 300 1141 q 232 1102 257 1102 l 231 1102 q 174 1133 197 1102 q 164 1167 164 1152 l 164 1173 q 186 1221 164 1199 q 232 1238 207 1238 m 463 1238 q 513 1215 492 1238 q 530 1173 530 1194 l 530 1168 q 508 1120 530 1141 q 463 1102 488 1102 l 462 1102 q 405 1133 427 1102 q 395 1167 395 1152 l 395 1173 q 417 1221 395 1199 q 463 1238 437 1238 z "},"©":{"ha":1297,"x_min":119,"x_max":1179,"o":"m 648 993 q 951 898 812 993 q 1011 849 977 881 q 1054 805 1046 815 q 1094 751 1080 774 q 1179 463 1179 617 q 1097 180 1179 311 q 1048 113 1080 151 q 993 59 1015 77 q 935 16 959 31 q 648 -68 801 -68 q 359 18 494 -68 q 295 68 331 37 q 249 114 257 104 q 197 185 213 158 q 161 254 176 217 q 119 456 119 355 l 119 470 q 161 673 119 570 q 208 759 180 713 q 254 816 226 784 q 304 865 289 854 q 373 916 342 897 q 648 993 502 993 m 212 463 l 212 460 q 290 212 212 328 q 330 165 305 191 q 368 128 357 137 q 427 86 398 104 q 647 26 531 26 l 650 26 q 887 98 777 26 q 927 127 904 107 q 971 167 939 135 l 983 183 q 1025 242 1010 214 q 1085 462 1085 346 q 1003 717 1085 600 q 958 770 988 738 q 897 821 922 805 q 648 899 783 899 q 396 819 513 899 q 342 772 377 806 q 296 720 309 739 q 266 671 279 695 q 212 463 212 572 m 666 790 l 684 790 q 875 715 783 790 q 933 648 919 673 l 854 595 q 735 686 812 661 q 680 695 707 695 l 669 695 q 519 625 587 695 q 457 463 457 554 l 457 460 q 530 290 457 363 q 675 230 595 230 q 846 318 774 230 l 855 332 l 935 281 q 768 150 877 189 q 675 135 720 135 q 463 222 557 135 q 362 459 362 325 l 362 467 q 462 703 362 600 q 666 790 557 790 z "},"ª":{"ha":439,"x_min":0,"x_max":0,"o":""},"«":{"ha":843,"x_min":79,"x_max":725,"o":"m 79 262 l 79 335 l 268 458 l 343 508 q 395 429 395 430 l 197 298 q 395 168 387 174 l 344 90 q 314 109 342 90 l 163 208 l 79 262 m 409 262 l 409 335 l 597 458 l 673 508 q 725 429 725 430 l 527 298 q 725 168 717 174 l 673 90 q 644 109 672 90 l 492 208 l 409 262 z "},"¬":{"ha":678,"x_min":102,"x_max":576,"o":"m 481 454 l 102 454 l 102 549 l 576 549 l 576 237 l 481 237 l 481 454 z "},"®":{"ha":823,"x_min":119,"x_max":705,"o":"m 412 993 q 579 941 503 993 q 612 913 593 931 q 636 889 632 895 q 658 859 650 871 q 705 700 705 785 q 660 543 705 616 q 633 507 650 527 q 602 476 614 486 q 570 452 583 461 q 412 406 496 406 q 252 454 326 406 q 216 481 236 464 q 191 507 195 501 q 162 546 171 531 q 142 585 151 564 q 119 696 119 640 l 119 704 q 142 817 119 759 q 168 863 153 838 q 193 895 178 878 q 221 922 213 916 q 259 950 242 940 q 412 993 330 993 m 155 700 l 155 699 q 201 552 155 620 q 224 524 210 540 q 247 503 240 508 q 281 478 264 488 q 411 443 342 443 l 413 443 q 552 485 487 443 q 576 502 562 490 q 602 526 583 507 l 609 535 q 633 570 625 553 q 669 699 669 631 q 621 849 669 780 q 594 880 612 862 q 558 910 572 901 q 412 956 491 956 q 263 909 332 956 q 231 882 252 901 q 204 851 212 863 q 186 822 195 836 q 155 700 155 764 m 353 853 l 353 691 l 419 691 q 450 697 437 691 q 491 736 477 709 q 498 771 498 753 l 498 781 q 483 826 498 806 q 471 838 475 835 q 422 853 450 853 l 353 853 m 314 890 l 421 890 q 475 876 448 890 q 495 863 485 871 q 508 849 505 853 q 521 830 517 838 q 528 812 526 821 q 532 777 532 798 l 532 775 q 523 725 532 747 q 513 707 519 716 q 461 663 493 677 l 521 541 l 536 508 l 494 508 q 490 518 494 509 q 457 587 487 524 l 425 655 l 419 654 l 350 654 l 350 509 l 314 509 l 314 890 z "},"¯":{"ha":454,"x_min":0,"x_max":0,"o":""},"°":{"ha":594,"x_min":67,"x_max":458,"o":"m 172 774 l 172 773 q 211 699 172 728 q 263 683 235 683 q 336 718 306 683 q 353 773 353 745 q 315 848 353 818 q 263 865 291 865 l 262 865 q 191 829 221 865 q 172 774 172 804 m 258 969 l 267 969 q 370 938 319 969 q 405 909 384 928 q 458 773 458 850 q 396 630 458 692 q 263 578 337 578 q 124 636 184 578 q 93 675 100 661 q 67 770 67 723 l 67 778 q 102 885 67 833 q 155 937 123 916 q 258 969 205 969 z "},"±":{"ha":585,"x_min":52,"x_max":533,"o":"m 52 0 l 533 0 l 533 -95 l 52 -95 l 52 0 m 245 380 l 245 573 l 340 573 l 340 380 l 533 380 l 533 285 l 340 285 l 340 92 l 245 92 l 245 285 l 52 285 l 52 380 l 245 380 z "},"²":{"ha":688,"x_min":0,"x_max":0,"o":""},"³":{"ha":688,"x_min":0,"x_max":0,"o":""},"´":{"ha":602,"x_min":164,"x_max":437,"o":"m 437 1225 l 214 1086 l 164 1167 l 388 1305 l 437 1225 z "},"µ":{"ha":781,"x_min":109,"x_max":671,"o":"m 203 49 l 203 -271 l 203 -271 l 109 -271 l 109 -271 l 109 644 l 110 644 l 111 645 l 201 645 l 202 644 l 203 644 l 203 237 q 317 101 203 131 q 394 95 340 95 q 498 113 463 95 q 568 183 550 138 q 576 244 576 214 l 576 642 l 578 644 l 669 644 l 671 642 l 671 12 l 669 9 l 578 9 l 576 12 l 576 75 q 389 0 502 0 q 203 49 270 0 z "},"¶":{"ha":760,"x_min":73,"x_max":640,"o":"m 498 68 l 498 824 l 385 824 l 385 68 l 290 68 l 290 450 q 142 516 199 463 q 73 682 73 580 q 145 854 73 789 q 339 919 218 919 l 640 919 l 640 824 l 593 824 l 593 68 l 498 68 z "},"·":{"ha":464,"x_min":164,"x_max":300,"o":"m 231 610 l 233 610 q 283 587 262 610 q 300 545 300 566 l 300 541 q 275 490 300 512 q 231 475 256 475 q 184 494 205 475 q 164 540 164 515 l 164 545 q 186 593 164 571 q 231 610 206 610 z "},"¸":{"ha":519,"x_min":166,"x_max":353,"o":"m 286 0 l 277 -40 q 298 -45 288 -41 q 341 -81 326 -55 q 353 -129 353 -105 q 321 -200 353 -170 q 253 -227 290 -227 q 172 -186 205 -227 q 166 -179 166 -180 l 222 -138 l 222 -138 q 253 -157 237 -157 q 277 -145 267 -157 q 283 -129 283 -137 q 279 -114 283 -120 q 264 -106 274 -109 q 236 -111 253 -104 l 189 -127 l 189 -126 l 214 0 l 286 0 z "},"¹":{"ha":688,"x_min":0,"x_max":0,"o":""},"º":{"ha":487,"x_min":0,"x_max":0,"o":""},"»":{"ha":843,"x_min":118,"x_max":764,"o":"m 680 208 l 529 109 q 499 90 500 90 l 448 168 q 646 298 456 174 l 448 429 q 500 508 448 430 l 575 458 l 764 335 l 764 262 l 680 208 m 351 208 l 199 109 q 170 90 171 90 l 118 168 q 316 298 126 174 l 118 429 q 170 508 118 430 l 245 458 l 434 335 l 434 262 l 351 208 z "},"¼":{"ha":1158,"x_min":0,"x_max":0,"o":""},"½":{"ha":1332,"x_min":0,"x_max":0,"o":""},"¾":{"ha":1158,"x_min":0,"x_max":0,"o":""},"¿":{"ha":695,"x_min":64,"x_max":605,"o":"m 341 884 l 340 884 q 283 916 305 884 q 273 950 273 933 l 273 953 q 298 1004 273 982 q 341 1019 317 1019 q 391 998 370 1019 q 408 951 408 977 q 380 897 408 918 q 341 884 362 884 m 339 0 l 330 0 q 197 39 262 0 q 153 73 180 49 q 116 117 124 102 q 87 169 99 140 q 64 280 64 227 l 64 289 q 94 414 64 348 q 125 465 106 439 q 157 500 134 478 q 215 547 182 525 q 264 587 240 566 q 294 644 294 614 l 293 730 l 293 810 l 294 811 l 388 811 l 389 704 l 389 646 q 332 519 389 573 q 268 469 302 493 q 222 432 241 450 q 194 397 199 408 q 174 360 182 380 q 159 286 159 321 l 159 285 q 207 155 159 212 q 235 128 228 132 q 334 95 281 95 l 335 95 q 448 140 397 95 q 475 172 469 161 q 510 284 510 224 l 510 309 l 511 309 l 604 309 l 605 309 l 605 280 q 570 143 605 212 q 543 104 561 127 q 514 72 536 93 q 468 37 488 49 q 339 0 404 0 z "},"À":{"ha":916,"x_min":24,"x_max":898,"o":"m 374 1305 l 597 1167 l 547 1086 l 324 1225 l 374 1305 m 509 993 q 531 941 512 993 l 888 23 l 898 1 l 897 0 l 795 0 q 734 154 791 5 q 701 233 705 230 l 217 233 q 145 51 214 229 q 124 0 127 4 l 26 0 l 24 1 l 24 1 l 411 993 l 509 993 m 459 857 l 254 329 l 666 329 l 460 857 l 459 857 z "},"Á":{"ha":916,"x_min":24,"x_max":898,"o":"m 324 1166 l 547 1305 l 597 1224 l 374 1086 l 324 1166 m 509 993 q 531 941 512 993 l 888 23 l 898 1 l 897 0 l 795 0 q 734 154 791 5 q 701 233 705 230 l 217 233 q 145 51 214 229 q 124 0 127 4 l 26 0 l 24 1 l 24 1 l 411 993 l 509 993 m 459 857 l 254 329 l 666 329 l 460 857 l 459 857 z "},"Â":{"ha":916,"x_min":24,"x_max":898,"o":"m 431 1313 l 491 1313 q 561 1231 493 1312 l 631 1147 l 559 1086 q 526 1126 557 1088 q 461 1202 463 1200 l 363 1086 l 363 1086 l 291 1147 l 291 1148 l 431 1313 m 509 993 q 531 941 512 993 l 888 23 l 898 1 l 897 0 l 795 0 q 734 154 791 5 q 701 233 705 230 l 217 233 q 145 51 214 229 q 124 0 127 4 l 26 0 l 24 1 l 24 1 l 411 993 l 509 993 m 459 857 l 254 329 l 666 329 l 460 857 l 459 857 z "},"Ã":{"ha":916,"x_min":24,"x_max":898,"o":"m 660 1152 q 618 1117 639 1128 q 556 1100 587 1100 q 460 1133 523 1100 q 364 1166 397 1166 q 307 1147 337 1166 q 262 1105 286 1134 l 262 1209 q 303 1244 283 1233 q 364 1261 335 1261 q 463 1228 399 1261 q 556 1194 526 1194 q 614 1213 584 1194 q 660 1256 635 1226 l 660 1152 m 509 993 q 531 941 512 993 l 888 23 l 898 1 l 897 0 l 795 0 q 734 154 791 5 q 701 233 705 230 l 217 233 q 145 51 214 229 q 124 0 127 4 l 26 0 l 24 1 l 24 1 l 411 993 l 509 993 m 459 857 l 254 329 l 666 329 l 460 857 l 459 857 z "},"Ä":{"ha":916,"x_min":24,"x_max":898,"o":"m 346 1244 q 397 1221 375 1244 q 414 1179 414 1201 l 414 1175 q 391 1126 414 1148 q 346 1109 371 1109 l 345 1109 q 288 1140 311 1109 q 278 1174 278 1158 l 278 1179 q 300 1227 278 1206 q 346 1244 321 1244 m 576 1244 q 627 1221 606 1244 q 644 1179 644 1201 l 644 1175 q 622 1126 644 1148 q 576 1109 602 1109 l 576 1109 q 519 1140 541 1109 q 509 1174 509 1158 l 509 1179 q 531 1227 509 1206 q 576 1244 551 1244 m 509 993 q 531 941 512 993 l 888 23 l 898 1 l 897 0 l 795 0 q 734 154 791 5 q 701 233 705 230 l 217 233 q 145 51 214 229 q 124 0 127 4 l 26 0 l 24 1 l 24 1 l 411 993 l 509 993 m 459 857 l 254 329 l 666 329 l 460 857 l 459 857 z "},"Å":{"ha":916,"x_min":24,"x_max":898,"o":"m 420 1091 l 420 1090 q 436 1058 420 1072 q 460 1049 448 1049 q 494 1065 480 1049 q 502 1090 502 1078 l 502 1092 q 490 1120 502 1107 q 460 1132 477 1132 q 432 1120 444 1132 q 420 1091 420 1107 m 459 857 l 254 329 l 666 329 l 460 857 l 459 857 m 411 993 q 390 1006 400 999 q 376 1021 380 1015 q 363 1040 368 1032 q 351 1087 351 1065 l 351 1093 q 372 1155 351 1125 q 387 1172 376 1161 q 460 1200 420 1200 l 461 1200 q 532 1173 500 1200 q 548 1156 545 1161 q 570 1090 570 1126 q 538 1013 570 1046 l 532 1006 q 510 992 522 998 q 531 941 514 987 l 888 23 l 898 1 l 897 0 l 795 0 q 734 154 791 5 q 701 233 705 230 l 217 233 q 145 51 214 229 q 124 0 127 4 l 26 0 l 24 1 l 24 1 l 411 993 z "},"Æ":{"ha":1152,"x_min":24,"x_max":1078,"o":"m 597 817 l 479 613 l 348 388 l 597 388 l 597 817 m 600 993 l 1078 993 l 1078 898 l 696 898 l 696 544 l 1001 544 l 1002 543 l 1002 449 l 696 449 l 696 95 l 1078 95 l 1078 0 l 597 0 l 597 293 l 293 293 q 276 264 292 291 l 131 15 l 122 0 l 24 0 l 180 271 l 326 521 l 498 817 l 597 988 l 600 993 z "},"Ç":{"ha":955,"x_min":66,"x_max":910,"o":"m 515 0 l 506 -40 q 526 -45 517 -41 q 570 -81 555 -55 q 582 -129 582 -105 q 549 -200 582 -170 q 481 -227 519 -227 q 400 -186 434 -227 q 395 -179 395 -180 l 450 -138 l 451 -138 q 481 -157 465 -157 q 506 -145 496 -157 q 512 -129 512 -137 q 507 -114 512 -120 q 493 -106 503 -109 q 465 -111 481 -105 l 418 -127 l 418 -126 l 444 6 q 187 156 301 31 q 66 493 66 307 l 66 500 q 208 859 66 704 q 513 993 345 993 l 522 993 q 833 852 694 993 q 909 741 895 779 q 825 699 828 699 q 779 770 808 733 q 519 898 666 898 l 515 898 q 249 761 362 898 q 161 500 161 642 l 161 493 q 275 201 161 328 q 519 95 382 95 q 783 227 669 95 q 827 296 810 265 l 910 253 q 828 135 895 212 q 516 0 691 0 l 515 0 z "},"È":{"ha":684,"x_min":117,"x_max":611,"o":"m 277 1305 l 500 1167 l 450 1086 l 227 1225 l 277 1305 m 117 993 l 610 993 l 611 992 l 611 899 l 610 898 l 212 898 l 212 544 l 530 544 l 531 543 l 531 450 l 530 449 l 212 449 l 212 95 l 610 95 l 611 94 l 611 1 l 610 0 l 117 0 l 117 1 l 117 992 l 117 993 z "},"É":{"ha":684,"x_min":117,"x_max":611,"o":"m 117 993 l 610 993 l 611 992 l 611 899 l 610 898 l 212 898 l 212 544 l 530 544 l 531 543 l 531 450 l 530 449 l 212 449 l 212 95 l 610 95 l 611 94 l 611 1 l 610 0 l 117 0 l 117 1 l 117 992 l 117 993 m 500 1225 l 277 1086 l 227 1167 l 451 1305 l 500 1225 z "},"Ê":{"ha":684,"x_min":117,"x_max":611,"o":"m 334 1313 l 394 1313 q 464 1231 396 1312 l 534 1147 l 462 1086 q 429 1126 460 1088 q 364 1202 366 1200 l 267 1086 l 266 1086 l 194 1147 l 194 1148 l 334 1313 m 117 993 l 610 993 l 611 992 l 611 899 l 610 898 l 212 898 l 212 544 l 530 544 l 531 543 l 531 450 l 530 449 l 212 449 l 212 95 l 610 95 l 611 94 l 611 1 l 610 0 l 117 0 l 117 1 l 117 992 l 117 993 z "},"Ë":{"ha":684,"x_min":117,"x_max":611,"o":"m 479 1244 q 530 1221 509 1244 q 547 1179 547 1201 l 547 1175 q 525 1126 547 1148 q 479 1109 505 1109 l 479 1109 q 422 1140 444 1109 q 412 1174 412 1158 l 412 1179 q 434 1227 412 1206 q 479 1244 454 1244 m 117 993 l 610 993 l 611 992 l 611 899 l 610 898 l 212 898 l 212 544 l 530 544 l 531 543 l 531 450 l 530 449 l 212 449 l 212 95 l 610 95 l 611 94 l 611 1 l 610 0 l 117 0 l 117 1 l 117 992 l 117 993 m 249 1244 q 300 1221 278 1244 q 317 1179 317 1201 l 317 1175 q 294 1126 317 1148 q 249 1109 274 1109 l 248 1109 q 191 1140 214 1109 q 181 1174 181 1158 l 181 1179 q 203 1227 181 1206 q 249 1244 224 1244 z "},"Ì":{"ha":328,"x_min":39,"x_max":290,"o":"m 117 993 l 211 993 l 212 992 l 212 1 l 211 0 l 117 0 l 117 1 l 117 992 l 117 993 m 88 1291 l 290 1167 l 239 1086 l 39 1211 l 88 1291 z "},"Í":{"ha":328,"x_min":39,"x_max":290,"o":"m 117 993 l 211 993 l 212 992 l 212 1 l 211 0 l 117 0 l 117 1 l 117 992 l 117 993 m 290 1211 l 89 1086 l 39 1167 l 240 1291 l 290 1211 z "},"Î":{"ha":328,"x_min":-6,"x_max":334,"o":"m 117 993 l 211 993 l 212 992 l 212 1 l 211 0 l 117 0 l 117 1 l 117 992 l 117 993 m 134 1313 l 194 1313 q 264 1231 196 1312 l 334 1147 l 262 1086 q 229 1126 260 1088 q 164 1202 165 1200 l 66 1086 l 66 1086 l -6 1147 l -6 1148 l 134 1313 z "},"Ï":{"ha":328,"x_min":-19,"x_max":347,"o":"m 117 993 l 211 993 l 212 992 l 212 1 l 211 0 l 117 0 l 117 1 l 117 992 l 117 993 m 49 1244 q 100 1221 78 1244 q 117 1179 117 1201 l 117 1175 q 94 1126 117 1148 q 49 1109 74 1109 l 48 1109 q -9 1140 14 1109 q -19 1174 -19 1158 l -19 1179 q 3 1227 -19 1206 q 49 1244 24 1244 m 279 1244 q 330 1221 309 1244 q 347 1179 347 1201 l 347 1175 q 325 1126 347 1148 q 279 1109 304 1109 l 279 1109 q 222 1140 244 1109 q 212 1174 212 1158 l 212 1179 q 234 1227 212 1206 q 279 1244 254 1244 z "},"Ð":{"ha":938,"x_min":76,"x_max":875,"o":"m 248 544 l 375 544 l 375 449 l 248 449 l 248 95 l 382 95 q 715 275 593 95 q 779 496 779 381 q 647 800 779 671 q 571 853 606 834 q 395 898 484 898 l 248 898 l 248 544 m 153 449 l 76 449 l 76 544 l 153 544 l 153 991 l 155 993 l 395 993 q 704 876 565 993 q 781 789 767 816 q 875 496 875 656 q 739 151 875 302 q 381 0 594 0 l 155 0 l 153 2 l 153 449 z "},"Ñ":{"ha":964,"x_min":117,"x_max":848,"o":"m 681 1152 q 640 1117 660 1128 q 577 1100 608 1100 q 481 1133 544 1100 q 385 1166 418 1166 q 328 1147 358 1166 q 283 1105 307 1134 l 283 1209 q 324 1244 304 1233 q 385 1261 356 1261 q 484 1228 420 1261 q 577 1194 547 1194 q 635 1213 605 1194 q 681 1256 656 1226 l 681 1152 m 119 993 l 235 993 q 598 401 241 987 l 751 150 l 753 150 l 753 991 l 754 993 l 846 993 l 848 991 l 848 2 l 846 0 l 734 0 q 683 81 724 11 q 320 675 680 85 l 216 843 l 216 2 l 214 0 l 119 0 l 117 2 l 117 991 l 119 993 z "},"Ò":{"ha":1046,"x_min":67,"x_max":985,"o":"m 439 1305 l 663 1167 l 613 1086 l 390 1225 l 439 1305 m 524 993 l 528 993 q 839 861 701 993 q 907 774 890 806 q 985 499 985 647 l 985 494 q 841 134 985 289 q 526 0 703 0 q 214 132 352 0 q 140 229 153 198 q 67 492 67 352 l 67 501 q 187 832 67 682 q 256 899 235 884 q 524 993 381 993 m 162 500 l 162 493 q 279 201 162 328 q 527 95 389 95 q 806 239 689 95 q 890 494 890 356 l 890 499 q 773 792 890 665 q 526 898 664 898 q 257 767 372 898 q 162 500 162 647 z "},"Ó":{"ha":1046,"x_min":67,"x_max":985,"o":"m 663 1225 l 440 1086 l 390 1167 l 614 1305 l 663 1225 m 524 993 l 528 993 q 839 861 701 993 q 907 774 890 806 q 985 499 985 647 l 985 494 q 841 134 985 289 q 526 0 703 0 q 214 132 352 0 q 140 229 153 198 q 67 492 67 352 l 67 501 q 187 832 67 682 q 256 899 235 884 q 524 993 381 993 m 162 500 l 162 493 q 279 201 162 328 q 527 95 389 95 q 806 239 689 95 q 890 494 890 356 l 890 499 q 773 792 890 665 q 526 898 664 898 q 257 767 372 898 q 162 500 162 647 z "},"Ô":{"ha":1046,"x_min":67,"x_max":985,"o":"m 496 1313 l 557 1313 q 627 1231 559 1312 l 696 1147 l 625 1086 q 591 1126 623 1088 q 527 1202 528 1200 l 429 1086 l 429 1086 l 357 1147 l 357 1148 l 496 1313 m 524 993 l 528 993 q 839 861 701 993 q 907 774 890 806 q 985 499 985 647 l 985 494 q 841 134 985 289 q 526 0 703 0 q 214 132 352 0 q 140 229 153 198 q 67 492 67 352 l 67 501 q 187 832 67 682 q 256 899 235 884 q 524 993 381 993 m 162 500 l 162 493 q 279 201 162 328 q 527 95 389 95 q 806 239 689 95 q 890 494 890 356 l 890 499 q 773 792 890 665 q 526 898 664 898 q 257 767 372 898 q 162 500 162 647 z "},"Õ":{"ha":1046,"x_min":67,"x_max":985,"o":"m 726 1152 q 684 1117 705 1128 q 622 1100 652 1100 q 526 1133 589 1100 q 430 1166 463 1166 q 372 1147 403 1166 q 328 1105 352 1134 l 328 1209 q 369 1244 349 1233 q 430 1261 401 1261 q 528 1228 465 1261 q 622 1194 591 1194 q 680 1213 650 1194 q 726 1256 701 1226 l 726 1152 m 524 993 l 528 993 q 839 861 701 993 q 907 774 890 806 q 985 499 985 647 l 985 494 q 841 134 985 289 q 526 0 703 0 q 214 132 352 0 q 140 229 153 198 q 67 492 67 352 l 67 501 q 187 832 67 682 q 256 899 235 884 q 524 993 381 993 m 162 500 l 162 493 q 279 201 162 328 q 527 95 389 95 q 806 239 689 95 q 890 494 890 356 l 890 499 q 773 792 890 665 q 526 898 664 898 q 257 767 372 898 q 162 500 162 647 z "},"Ö":{"ha":1046,"x_min":67,"x_max":985,"o":"m 411 1244 q 462 1221 440 1244 q 479 1179 479 1201 l 479 1175 q 456 1126 479 1148 q 411 1109 436 1109 l 410 1109 q 353 1140 376 1109 q 343 1174 343 1158 l 343 1179 q 366 1227 343 1206 q 411 1244 386 1244 m 642 1244 q 692 1221 671 1244 q 709 1179 709 1201 l 709 1175 q 687 1126 709 1148 q 642 1109 667 1109 l 641 1109 q 584 1140 606 1109 q 574 1174 574 1158 l 574 1179 q 596 1227 574 1206 q 642 1244 616 1244 m 524 993 l 528 993 q 839 861 701 993 q 907 774 890 806 q 985 499 985 647 l 985 494 q 841 134 985 289 q 526 0 703 0 q 214 132 352 0 q 140 229 153 198 q 67 492 67 352 l 67 501 q 187 832 67 682 q 256 899 235 884 q 524 993 381 993 m 162 500 l 162 493 q 279 201 162 328 q 527 95 389 95 q 806 239 689 95 q 890 494 890 356 l 890 499 q 773 792 890 665 q 526 898 664 898 q 257 767 372 898 q 162 500 162 647 z "},"×":{"ha":538,"x_min":65,"x_max":473,"o":"m 202 330 l 65 467 l 132 534 l 269 397 l 406 534 l 473 467 l 336 330 l 473 193 l 406 126 l 269 263 l 132 126 l 65 193 l 202 330 z "},"Ø":{"ha":1046,"x_min":67,"x_max":985,"o":"m 696 851 q 526 898 618 898 q 257 767 372 898 q 162 500 162 647 l 162 493 q 279 201 162 328 q 288 193 284 197 l 696 851 m 771 794 l 363 137 q 527 95 439 95 q 806 239 689 95 q 890 494 890 356 l 890 499 q 773 792 890 665 q 771 794 772 793 m 747 932 l 824 1057 l 825 1057 l 904 1010 l 904 1009 l 822 876 q 839 861 830 869 q 907 774 890 806 q 985 499 985 647 l 985 494 q 841 134 985 289 q 526 0 703 0 q 313 56 412 0 l 250 -47 l 249 -47 l 170 0 l 170 1 l 237 111 q 214 132 226 121 q 140 229 153 198 q 67 492 67 352 l 67 501 q 187 832 67 682 q 256 899 235 884 q 524 993 381 993 l 528 993 q 747 932 646 993 z "},"Ù":{"ha":941,"x_min":115,"x_max":826,"o":"m 383 1305 l 607 1167 l 557 1086 l 334 1225 l 383 1305 m 117 993 l 208 993 l 210 991 l 210 355 q 324 121 210 197 q 423 95 374 95 l 517 95 q 686 190 620 95 q 730 365 730 258 l 730 991 l 732 993 l 824 993 l 826 991 l 826 365 q 669 43 826 145 q 519 0 596 0 l 422 0 q 216 86 307 0 q 115 354 115 193 l 115 991 l 117 993 z "},"Ú":{"ha":941,"x_min":115,"x_max":826,"o":"m 607 1225 l 384 1086 l 334 1167 l 557 1305 l 607 1225 m 117 993 l 208 993 l 210 991 l 210 355 q 324 121 210 197 q 423 95 374 95 l 517 95 q 686 190 620 95 q 730 365 730 258 l 730 991 l 732 993 l 824 993 l 826 991 l 826 365 q 669 43 826 145 q 519 0 596 0 l 422 0 q 216 86 307 0 q 115 354 115 193 l 115 991 l 117 993 z "},"Û":{"ha":941,"x_min":115,"x_max":826,"o":"m 440 1313 l 500 1313 q 570 1231 503 1312 l 640 1147 l 568 1086 q 535 1126 566 1088 q 471 1202 472 1200 l 373 1086 l 372 1086 l 300 1147 l 300 1148 l 440 1313 m 117 993 l 208 993 l 210 991 l 210 355 q 324 121 210 197 q 423 95 374 95 l 517 95 q 686 190 620 95 q 730 365 730 258 l 730 991 l 732 993 l 824 993 l 826 991 l 826 365 q 669 43 826 145 q 519 0 596 0 l 422 0 q 216 86 307 0 q 115 354 115 193 l 115 991 l 117 993 z "},"Ü":{"ha":941,"x_min":115,"x_max":826,"o":"m 355 1244 q 406 1221 385 1244 q 423 1179 423 1201 l 423 1175 q 401 1126 423 1148 q 355 1109 380 1109 l 355 1109 q 298 1140 320 1109 q 288 1174 288 1158 l 288 1179 q 310 1227 288 1206 q 355 1244 330 1244 m 586 1244 q 637 1221 615 1244 q 654 1179 654 1201 l 654 1175 q 631 1126 654 1148 q 586 1109 611 1109 l 585 1109 q 528 1140 551 1109 q 518 1174 518 1158 l 518 1179 q 541 1227 518 1206 q 586 1244 561 1244 m 117 993 l 208 993 l 210 991 l 210 355 q 324 121 210 197 q 423 95 374 95 l 517 95 q 686 190 620 95 q 730 365 730 258 l 730 991 l 732 993 l 824 993 l 826 991 l 826 365 q 669 43 826 145 q 519 0 596 0 l 422 0 q 216 86 307 0 q 115 354 115 193 l 115 991 l 117 993 z "},"Ý":{"ha":809,"x_min":20,"x_max":791,"o":"m 543 1225 l 319 1086 l 269 1167 l 493 1305 l 543 1225 m 20 993 l 137 993 q 402 588 149 977 l 406 585 l 674 993 l 789 993 l 791 991 l 456 487 l 456 2 l 454 0 l 357 0 l 355 2 l 355 487 l 20 991 l 20 993 z "},"Þ":{"ha":886,"x_min":104,"x_max":826,"o":"m 199 186 l 199 1 l 198 0 l 104 0 l 104 1 l 104 992 l 104 993 l 198 993 l 199 992 l 199 807 l 496 807 q 754 719 662 807 q 785 681 778 693 q 808 637 800 658 q 826 544 826 591 l 826 449 q 790 319 826 381 q 654 211 746 247 q 503 186 583 186 l 199 186 m 199 713 l 199 279 l 498 279 q 684 336 618 279 q 732 452 732 382 l 732 540 q 674 664 732 617 q 648 682 659 675 q 601 700 631 691 q 488 713 556 713 l 199 713 z "},"ß":{"ha":884,"x_min":104,"x_max":820,"o":"m 374 992 l 382 992 q 601 928 517 992 q 663 793 663 872 q 587 612 663 709 q 545 520 545 549 l 545 516 q 651 420 545 471 q 755 342 703 391 q 820 205 820 273 l 820 191 q 752 52 820 122 q 556 -25 666 -25 l 555 -25 q 306 129 404 -25 l 305 132 l 385 180 q 556 70 455 70 q 693 127 633 70 q 725 193 725 166 l 725 201 q 556 363 725 277 q 450 514 450 429 l 450 520 q 539 709 450 593 q 568 794 568 756 q 410 897 568 880 l 380 897 l 375 897 q 208 802 251 897 q 199 767 199 778 l 199 2 l 197 0 l 106 0 l 104 2 l 104 772 q 144 883 104 815 q 374 992 224 992 z "},"à":{"ha":795,"x_min":62,"x_max":694,"o":"m 291 956 l 515 819 l 465 738 l 241 876 l 291 956 m 383 651 q 596 541 517 651 l 598 537 l 599 537 l 599 643 l 600 645 l 692 645 l 694 643 l 694 2 l 692 0 l 600 0 l 599 2 l 599 106 l 598 106 q 377 -6 525 -6 l 377 -5 l 376 -6 q 145 100 244 -6 q 62 318 62 199 l 62 326 q 154 554 62 454 q 383 651 250 651 m 157 325 l 157 321 q 248 134 157 208 q 375 90 305 90 q 578 234 522 90 q 593 318 593 276 l 593 333 q 556 456 593 392 q 386 555 492 555 q 177 419 242 555 q 157 325 157 371 z "},"á":{"ha":795,"x_min":62,"x_max":694,"o":"m 241 818 l 465 956 l 515 876 l 291 738 l 241 818 m 383 651 q 596 541 517 651 l 598 537 l 599 537 l 599 643 l 600 645 l 692 645 l 694 643 l 694 2 l 692 0 l 600 0 l 599 2 l 599 106 l 598 106 q 377 -6 525 -6 l 377 -5 l 376 -6 q 145 100 244 -6 q 62 318 62 199 l 62 326 q 154 554 62 454 q 383 651 250 651 m 157 325 l 157 321 q 248 134 157 208 q 375 90 305 90 q 578 234 522 90 q 593 318 593 276 l 593 333 q 556 456 593 392 q 386 555 492 555 q 177 419 242 555 q 157 325 157 371 z "},"â":{"ha":795,"x_min":62,"x_max":694,"o":"m 347 964 l 407 964 q 477 882 409 962 l 547 798 l 475 737 q 441 777 473 739 q 377 852 378 850 l 279 737 l 279 737 l 207 798 l 207 799 l 347 964 m 383 651 q 596 541 517 651 l 598 537 l 599 537 l 599 643 l 600 645 l 692 645 l 694 643 l 694 2 l 692 0 l 600 0 l 599 2 l 599 106 l 598 106 q 377 -6 525 -6 l 377 -5 l 376 -6 q 145 100 244 -6 q 62 318 62 199 l 62 326 q 154 554 62 454 q 383 651 250 651 m 157 325 l 157 321 q 248 134 157 208 q 375 90 305 90 q 578 234 522 90 q 593 318 593 276 l 593 333 q 556 456 593 392 q 386 555 492 555 q 177 419 242 555 q 157 325 157 371 z "},"ã":{"ha":795,"x_min":62,"x_max":694,"o":"m 578 803 q 537 768 557 780 q 475 751 505 751 q 378 784 441 751 q 282 817 315 817 q 224 798 255 817 q 180 756 204 785 l 180 861 q 221 895 201 884 q 282 913 253 913 q 381 879 317 913 q 475 846 444 846 q 533 865 503 846 q 578 907 553 878 l 578 803 m 383 651 q 596 541 517 651 l 598 537 l 599 537 l 599 643 l 600 645 l 692 645 l 694 643 l 694 2 l 692 0 l 600 0 l 599 2 l 599 106 l 598 106 q 377 -6 525 -6 l 377 -5 l 376 -6 q 145 100 244 -6 q 62 318 62 199 l 62 326 q 154 554 62 454 q 383 651 250 651 m 157 325 l 157 321 q 248 134 157 208 q 375 90 305 90 q 578 234 522 90 q 593 318 593 276 l 593 333 q 556 456 593 392 q 386 555 492 555 q 177 419 242 555 q 157 325 157 371 z "},"ä":{"ha":795,"x_min":62,"x_max":694,"o":"m 263 895 q 314 871 292 895 q 331 829 331 851 l 331 825 q 309 777 331 798 q 263 759 288 759 l 262 759 q 205 790 228 759 q 195 824 195 808 l 195 829 q 218 878 195 856 q 263 895 238 895 m 494 895 q 545 871 523 895 q 562 829 562 851 l 562 825 q 539 777 562 798 q 494 759 519 759 l 493 759 q 436 790 458 759 q 426 824 426 808 l 426 829 q 448 878 426 856 q 494 895 469 895 m 383 651 q 596 541 517 651 l 598 537 l 599 537 l 599 643 l 600 645 l 692 645 l 694 643 l 694 2 l 692 0 l 600 0 l 599 2 l 599 106 l 598 106 q 377 -6 525 -6 l 377 -5 l 376 -6 q 145 100 244 -6 q 62 318 62 199 l 62 326 q 154 554 62 454 q 383 651 250 651 m 157 325 l 157 321 q 248 134 157 208 q 375 90 305 90 q 578 234 522 90 q 593 318 593 276 l 593 333 q 556 456 593 392 q 386 555 492 555 q 177 419 242 555 q 157 325 157 371 z "},"å":{"ha":795,"x_min":62,"x_max":694,"o":"m 342 841 l 342 840 q 357 812 342 823 q 379 804 367 804 q 408 818 397 804 q 415 840 415 829 l 415 842 q 405 866 415 855 q 379 877 393 877 q 353 867 364 877 q 342 841 342 855 m 378 949 l 379 949 q 450 923 418 949 q 467 906 463 911 q 488 840 488 876 q 455 762 488 796 l 450 756 q 378 731 418 731 q 308 756 340 731 q 294 771 298 765 q 281 790 286 782 q 269 837 269 814 l 269 843 q 290 905 269 875 q 305 922 294 911 q 378 949 338 949 m 383 651 q 596 541 517 651 l 598 537 l 599 537 l 599 643 l 600 645 l 692 645 l 694 643 l 694 2 l 692 0 l 600 0 l 599 2 l 599 106 l 598 106 q 377 -6 525 -6 l 377 -5 l 376 -6 q 145 100 244 -6 q 62 318 62 199 l 62 326 q 154 554 62 454 q 383 651 250 651 m 157 325 l 157 321 q 248 134 157 208 q 375 90 305 90 q 578 234 522 90 q 593 318 593 276 l 593 333 q 556 456 593 392 q 386 555 492 555 q 177 419 242 555 q 157 325 157 371 z "},"æ":{"ha":1291,"x_min":62,"x_max":1236,"o":"m 157 325 l 157 321 q 248 134 157 208 q 375 90 305 90 q 578 234 522 90 q 593 318 593 276 l 593 333 q 556 456 593 392 q 386 555 492 555 q 177 419 242 555 q 157 325 157 371 m 726 392 l 1132 392 q 1036 523 1103 481 q 928 555 986 555 q 759 463 829 555 q 726 392 737 431 m 694 111 l 694 2 l 692 0 l 600 0 l 599 2 l 599 106 l 598 106 q 377 -6 525 -6 l 377 -5 l 376 -6 q 145 100 244 -6 q 62 318 62 199 l 62 326 q 154 554 62 454 q 383 651 250 651 q 596 541 517 651 l 598 537 l 599 537 l 599 643 l 600 645 l 692 645 l 694 643 l 694 532 q 719 562 705 547 q 931 650 810 650 q 1171 527 1071 650 q 1236 338 1236 430 l 1236 330 q 1232 298 1236 298 l 718 298 q 745 207 718 266 q 862 101 785 131 q 929 89 899 89 q 1090 170 1022 89 q 1121 222 1114 202 l 1122 222 q 1208 185 1177 200 q 1142 85 1194 142 q 930 -6 1048 -6 q 694 111 792 -6 z "},"ç":{"ha":679,"x_min":61,"x_max":634,"o":"m 360 -6 l 352 -40 q 372 -45 363 -41 q 416 -81 401 -55 q 428 -129 428 -105 q 395 -200 428 -170 q 328 -227 365 -227 q 246 -186 280 -227 q 241 -179 241 -180 l 296 -138 l 297 -138 q 328 -157 311 -157 q 352 -145 342 -157 q 358 -129 358 -137 q 353 -114 358 -120 q 339 -106 349 -109 q 311 -111 328 -105 l 264 -127 l 264 -126 l 290 5 q 161 81 221 26 q 61 318 61 184 l 61 326 q 161 562 61 459 q 365 649 256 649 l 382 649 q 574 574 482 649 q 632 507 618 532 l 553 454 q 434 545 511 519 q 378 554 406 554 l 368 554 q 218 484 286 554 q 156 322 156 413 l 156 319 q 229 148 156 222 q 374 89 294 89 q 544 176 473 89 l 554 191 l 634 139 q 467 9 575 47 q 374 -6 418 -6 l 360 -6 z "},"è":{"ha":715,"x_min":45,"x_max":660,"o":"m 266 956 l 490 819 l 439 738 l 216 876 l 266 956 m 355 650 q 594 527 494 650 q 660 338 660 430 l 660 330 q 656 298 660 298 l 141 298 q 168 207 141 266 q 286 101 209 131 q 353 89 323 89 q 513 170 446 89 q 545 222 537 202 l 546 222 q 632 185 601 200 q 566 85 617 142 q 353 -6 472 -6 q 111 118 212 -6 q 45 318 45 212 l 45 324 q 142 562 45 460 q 355 650 233 650 m 150 392 l 555 392 q 460 523 527 481 q 351 555 410 555 q 182 463 252 555 q 150 392 161 431 z "},"é":{"ha":715,"x_min":45,"x_max":660,"o":"m 490 876 l 267 738 l 216 819 l 440 956 l 490 876 m 355 650 q 594 527 494 650 q 660 338 660 430 l 660 330 q 656 298 660 298 l 141 298 q 168 207 141 266 q 286 101 209 131 q 353 89 323 89 q 513 170 446 89 q 545 222 537 202 l 546 222 q 632 185 601 200 q 566 85 617 142 q 353 -6 472 -6 q 111 118 212 -6 q 45 318 45 212 l 45 324 q 142 562 45 460 q 355 650 233 650 m 150 392 l 555 392 q 460 523 527 481 q 351 555 410 555 q 182 463 252 555 q 150 392 161 431 z "},"ê":{"ha":715,"x_min":45,"x_max":660,"o":"m 323 964 l 383 964 q 453 882 385 963 l 523 799 l 451 738 q 418 777 449 739 q 353 853 355 851 l 256 738 l 255 738 l 183 799 l 183 800 l 323 964 m 355 650 q 594 527 494 650 q 660 338 660 430 l 660 330 q 656 298 660 298 l 141 298 q 168 207 141 266 q 286 101 209 131 q 353 89 323 89 q 513 170 446 89 q 545 222 537 202 l 546 222 q 632 185 601 200 q 566 85 617 142 q 353 -6 472 -6 q 111 118 212 -6 q 45 318 45 212 l 45 324 q 142 562 45 460 q 355 650 233 650 m 150 392 l 555 392 q 460 523 527 481 q 351 555 410 555 q 182 463 252 555 q 150 392 161 431 z "},"ë":{"ha":715,"x_min":45,"x_max":660,"o":"m 237 895 q 288 871 267 895 q 305 829 305 851 l 305 825 q 283 777 305 798 q 237 759 262 759 l 237 759 q 180 790 202 759 q 170 824 170 808 l 170 829 q 192 878 170 856 q 237 895 212 895 m 468 895 q 519 871 497 895 q 536 829 536 851 l 536 825 q 513 777 536 798 q 468 759 493 759 l 467 759 q 410 790 433 759 q 400 824 400 808 l 400 829 q 422 878 400 856 q 468 895 443 895 m 355 650 q 594 527 494 650 q 660 338 660 430 l 660 330 q 656 298 660 298 l 141 298 q 168 207 141 266 q 286 101 209 131 q 353 89 323 89 q 513 170 446 89 q 545 222 537 202 l 546 222 q 632 185 601 200 q 566 85 617 142 q 353 -6 472 -6 q 111 118 212 -6 q 45 318 45 212 l 45 324 q 142 562 45 460 q 355 650 233 650 m 150 392 l 555 392 q 460 523 527 481 q 351 555 410 555 q 182 463 252 555 q 150 392 161 431 z "},"ì":{"ha":316,"x_min":21,"x_max":294,"o":"m 111 644 l 205 644 l 205 644 l 205 1 l 205 0 l 111 0 l 111 1 l 111 644 l 111 644 m 71 956 l 294 819 l 244 738 l 21 876 l 71 956 z "},"í":{"ha":316,"x_min":21,"x_max":294,"o":"m 111 644 l 205 644 l 205 644 l 205 1 l 205 0 l 111 0 l 111 1 l 111 644 l 111 644 m 294 876 l 71 738 l 21 819 l 245 956 l 294 876 z "},"î":{"ha":316,"x_min":-12,"x_max":328,"o":"m 111 644 l 205 644 l 205 644 l 205 1 l 205 0 l 111 0 l 111 1 l 111 644 l 111 644 m 127 964 l 188 964 q 258 882 190 963 l 328 799 l 256 738 q 222 777 254 739 q 158 853 159 851 l 60 738 l 60 738 l -12 799 l -12 800 l 127 964 z "},"ï":{"ha":316,"x_min":-12,"x_max":328,"o":"m 111 644 l 205 644 l 205 644 l 205 1 l 205 0 l 111 0 l 111 1 l 111 644 l 111 644 m 56 895 q 107 871 85 895 q 124 829 124 851 l 124 825 q 102 777 124 798 q 56 759 81 759 l 56 759 q -1 790 21 759 q -12 824 -12 808 l -12 829 q 11 878 -12 856 q 56 895 31 895 m 260 895 q 311 871 289 895 q 328 829 328 851 l 328 825 q 305 777 328 798 q 260 759 285 759 l 259 759 q 202 790 224 759 q 192 824 192 808 l 192 829 q 214 878 192 856 q 260 895 235 895 z "},"ð":{"ha":772,"x_min":0,"x_max":0,"o":""},"ñ":{"ha":767,"x_min":104,"x_max":667,"o":"m 585 803 q 543 768 564 780 q 481 751 511 751 q 384 784 448 751 q 288 817 321 817 q 231 798 261 817 q 186 756 210 785 l 186 861 q 227 895 207 884 q 288 913 259 913 q 387 879 323 913 q 481 846 450 846 q 539 865 509 846 q 585 907 559 878 l 585 803 m 382 644 l 393 644 q 650 498 584 644 q 667 408 667 455 l 667 2 l 665 0 l 573 0 l 572 2 l 572 408 q 469 541 572 507 q 376 549 446 549 q 250 514 292 549 q 199 402 199 481 l 199 2 l 197 0 l 106 0 l 104 2 l 104 633 l 106 635 l 197 635 l 199 633 l 199 570 q 382 644 273 644 z "},"ò":{"ha":748,"x_min":61,"x_max":687,"o":"m 287 956 l 511 819 l 460 738 l 237 876 l 287 956 m 365 649 l 382 649 q 581 568 487 649 q 687 321 687 465 q 575 71 687 176 q 374 -6 483 -6 q 161 81 256 -6 q 61 318 61 184 l 61 326 q 161 562 61 459 q 365 649 256 649 m 156 322 l 156 319 q 228 149 156 223 q 374 89 294 89 q 549 182 476 89 q 592 322 592 249 q 515 499 592 425 q 378 554 452 554 l 368 554 q 217 484 287 554 q 156 322 156 413 z "},"ó":{"ha":748,"x_min":61,"x_max":687,"o":"m 496 876 l 273 738 l 222 819 l 446 956 l 496 876 m 365 649 l 382 649 q 581 568 487 649 q 687 321 687 465 q 575 71 687 176 q 374 -6 483 -6 q 161 81 256 -6 q 61 318 61 184 l 61 326 q 161 562 61 459 q 365 649 256 649 m 156 322 l 156 319 q 228 149 156 223 q 374 89 294 89 q 549 182 476 89 q 592 322 592 249 q 515 499 592 425 q 378 554 452 554 l 368 554 q 217 484 287 554 q 156 322 156 413 z "},"ô":{"ha":748,"x_min":61,"x_max":687,"o":"m 344 964 l 404 964 q 474 882 406 963 l 544 799 l 472 738 q 439 777 470 739 q 374 853 376 851 l 277 738 l 276 738 l 204 799 l 204 800 l 344 964 m 365 649 l 382 649 q 581 568 487 649 q 687 321 687 465 q 575 71 687 176 q 374 -6 483 -6 q 161 81 256 -6 q 61 318 61 184 l 61 326 q 161 562 61 459 q 365 649 256 649 m 156 322 l 156 319 q 228 149 156 223 q 374 89 294 89 q 549 182 476 89 q 592 322 592 249 q 515 499 592 425 q 378 554 452 554 l 368 554 q 217 484 287 554 q 156 322 156 413 z "},"õ":{"ha":748,"x_min":61,"x_max":687,"o":"m 574 803 q 532 768 553 780 q 470 751 500 751 q 373 784 437 751 q 277 817 310 817 q 220 798 250 817 q 175 756 199 785 l 175 861 q 216 895 196 884 q 277 913 248 913 q 376 879 313 913 q 470 846 439 846 q 528 865 498 846 q 574 907 549 878 l 574 803 m 365 649 l 382 649 q 581 568 487 649 q 687 321 687 465 q 575 71 687 176 q 374 -6 483 -6 q 161 81 256 -6 q 61 318 61 184 l 61 326 q 161 562 61 459 q 365 649 256 649 m 156 322 l 156 319 q 228 149 156 223 q 374 89 294 89 q 549 182 476 89 q 592 322 592 249 q 515 499 592 425 q 378 554 452 554 l 368 554 q 217 484 287 554 q 156 322 156 413 z "},"ö":{"ha":748,"x_min":61,"x_max":687,"o":"m 259 895 q 310 871 288 895 q 327 829 327 851 l 327 825 q 304 777 327 798 q 259 759 284 759 l 258 759 q 201 790 224 759 q 191 824 191 808 l 191 829 q 214 878 191 856 q 259 895 234 895 m 490 895 q 541 871 519 895 q 557 829 557 851 l 557 825 q 535 777 557 798 q 490 759 515 759 l 489 759 q 432 790 454 759 q 422 824 422 808 l 422 829 q 444 878 422 856 q 490 895 465 895 m 365 649 l 382 649 q 581 568 487 649 q 687 321 687 465 q 575 71 687 176 q 374 -6 483 -6 q 161 81 256 -6 q 61 318 61 184 l 61 326 q 161 562 61 459 q 365 649 256 649 m 156 322 l 156 319 q 228 149 156 223 q 374 89 294 89 q 549 182 476 89 q 592 322 592 249 q 515 499 592 425 q 378 554 452 554 l 368 554 q 217 484 287 554 q 156 322 156 413 z "},"÷":{"ha":587,"x_min":65,"x_max":522,"o":"m 65 380 l 522 380 l 522 285 l 65 285 l 65 380 m 293 200 l 294 200 q 345 176 323 200 q 361 135 361 156 l 361 131 q 336 80 361 102 q 293 64 317 64 q 246 83 267 64 q 226 130 226 105 l 226 135 q 248 182 226 161 q 293 200 268 200 m 293 600 l 294 600 q 345 576 323 600 q 361 535 361 556 l 361 531 q 336 480 361 502 q 293 465 317 465 q 246 484 267 465 q 226 530 226 505 l 226 535 q 248 583 226 561 q 293 600 268 600 z "},"ø":{"ha":748,"x_min":61,"x_max":687,"o":"m 454 538 q 378 554 418 554 l 368 554 q 217 484 287 554 q 156 322 156 413 l 156 319 q 228 149 156 223 q 229 149 229 149 l 454 538 m 532 481 l 310 99 q 374 89 340 89 q 549 182 476 89 q 592 322 592 249 q 532 481 592 413 m 503 621 l 555 711 l 555 712 l 637 665 l 637 664 l 581 568 q 687 321 687 464 q 575 71 687 176 q 374 -6 483 -6 q 262 16 315 -6 l 215 -65 l 214 -65 l 133 -18 l 133 -18 l 180 64 q 161 81 171 72 q 61 318 61 184 l 61 326 q 161 562 61 459 q 365 649 256 649 l 382 649 q 503 621 444 649 z "},"ù":{"ha":766,"x_min":100,"x_max":663,"o":"m 295 956 l 519 819 l 469 738 l 245 876 l 295 956 m 102 644 l 193 644 l 195 642 l 195 237 q 309 101 195 131 q 386 95 332 95 q 490 113 455 95 q 559 183 542 138 q 568 244 568 214 l 568 642 l 570 644 l 661 644 l 663 642 l 663 12 l 661 9 l 570 9 l 568 12 l 568 75 q 380 0 494 0 q 192 52 259 0 q 100 234 100 121 l 100 642 l 102 644 z "},"ú":{"ha":766,"x_min":100,"x_max":663,"o":"m 519 876 l 296 738 l 245 819 l 469 956 l 519 876 m 102 644 l 193 644 l 195 642 l 195 237 q 309 101 195 131 q 386 95 332 95 q 490 113 455 95 q 559 183 542 138 q 568 244 568 214 l 568 642 l 570 644 l 661 644 l 663 642 l 663 12 l 661 9 l 570 9 l 568 12 l 568 75 q 380 0 494 0 q 192 52 259 0 q 100 234 100 121 l 100 642 l 102 644 z "},"û":{"ha":766,"x_min":100,"x_max":663,"o":"m 352 964 l 412 964 q 482 882 414 963 l 552 799 l 480 738 q 447 777 478 739 q 382 853 384 851 l 285 738 l 284 738 l 212 799 l 212 800 l 352 964 m 102 644 l 193 644 l 195 642 l 195 237 q 309 101 195 131 q 386 95 332 95 q 490 113 455 95 q 559 183 542 138 q 568 244 568 214 l 568 642 l 570 644 l 661 644 l 663 642 l 663 12 l 661 9 l 570 9 l 568 12 l 568 75 q 380 0 494 0 q 192 52 259 0 q 100 234 100 121 l 100 642 l 102 644 z "},"ü":{"ha":766,"x_min":100,"x_max":663,"o":"m 267 895 q 317 871 296 895 q 334 829 334 851 l 334 825 q 312 777 334 798 q 267 759 292 759 l 266 759 q 209 790 231 759 q 199 824 199 808 l 199 829 q 221 878 199 856 q 267 895 241 895 m 497 895 q 548 871 526 895 q 565 829 565 851 l 565 825 q 543 777 565 798 q 497 759 522 759 l 496 759 q 439 790 462 759 q 429 824 429 808 l 429 829 q 452 878 429 856 q 497 895 472 895 m 102 644 l 193 644 l 195 642 l 195 237 q 309 101 195 131 q 386 95 332 95 q 490 113 455 95 q 559 183 542 138 q 568 244 568 214 l 568 642 l 570 644 l 661 644 l 663 642 l 663 12 l 661 9 l 570 9 l 568 12 l 568 75 q 380 0 494 0 q 192 52 259 0 q 100 234 100 121 l 100 642 l 102 644 z "},"ý":{"ha":692,"x_min":23,"x_max":669,"o":"m 482 876 l 259 738 l 209 819 l 433 956 l 482 876 m 130 644 q 161 573 132 644 l 345 134 q 425 315 348 137 q 566 644 564 644 l 669 644 l 669 644 l 308 -197 l 267 -292 l 164 -292 l 164 -292 l 294 13 l 23 644 l 24 644 l 130 644 z "},"þ":{"ha":800,"x_min":104,"x_max":735,"o":"m 204 322 l 204 315 q 264 158 204 233 q 413 90 324 90 q 615 214 549 90 q 640 318 640 266 l 640 328 q 568 495 640 421 q 423 555 505 555 q 220 413 276 555 q 204 322 204 370 m 199 -271 l 104 -271 l 104 -271 l 104 992 l 104 993 l 198 993 l 199 992 l 199 538 q 420 651 274 651 l 420 650 l 422 650 l 422 651 q 635 564 540 651 q 704 467 684 512 q 735 330 735 396 l 735 315 q 641 87 735 191 q 414 -6 545 -6 q 201 104 281 -6 l 199 107 l 199 107 l 199 -271 z "},"ÿ":{"ha":692,"x_min":23,"x_max":669,"o":"m 231 895 q 281 871 260 895 q 298 829 298 851 l 298 825 q 276 777 298 798 q 231 759 256 759 l 230 759 q 173 790 195 759 q 163 824 163 808 l 163 829 q 185 878 163 856 q 231 895 205 895 m 461 895 q 512 871 490 895 q 529 829 529 851 l 529 825 q 507 777 529 798 q 461 759 486 759 l 460 759 q 404 790 426 759 q 393 824 393 808 l 393 829 q 416 878 393 856 q 461 895 436 895 m 130 644 q 161 573 132 644 l 345 134 q 425 315 348 137 q 566 644 564 644 l 669 644 l 669 644 l 308 -197 l 267 -292 l 164 -292 l 164 -292 l 294 13 l 23 644 l 24 644 l 130 644 z "},"ı":{"ha":349,"x_min":0,"x_max":0,"o":""},"ˆ":{"ha":668,"x_min":164,"x_max":504,"o":"m 304 1313 l 364 1313 q 434 1231 366 1312 l 504 1147 l 432 1086 q 399 1126 430 1088 q 334 1202 336 1200 l 237 1086 l 236 1086 l 164 1147 l 164 1148 l 304 1313 z "},"ˇ":{"ha":511,"x_min":164,"x_max":504,"o":"m 164 1251 l 164 1252 l 236 1313 l 237 1313 l 334 1198 q 399 1274 336 1200 q 432 1313 430 1312 l 504 1252 l 434 1168 q 364 1086 366 1088 l 304 1086 l 164 1251 z "},"ˉ":{"ha":678,"x_min":164,"x_max":514,"o":"m 164 1138 l 164 1223 l 514 1223 l 514 1138 l 164 1138 z "},"˘":{"ha":441,"x_min":0,"x_max":0,"o":""},"˙":{"ha":464,"x_min":164,"x_max":300,"o":"m 231 1200 l 233 1200 q 283 1176 262 1200 q 300 1135 300 1156 l 300 1131 q 275 1080 300 1101 q 231 1064 256 1064 q 184 1083 205 1064 q 164 1129 164 1105 l 164 1135 q 186 1182 164 1160 q 231 1200 206 1200 z "},"˚":{"ha":547,"x_min":164,"x_max":383,"o":"m 233 1091 l 233 1090 q 249 1058 233 1072 q 273 1049 260 1049 q 307 1065 293 1049 q 315 1090 315 1078 l 315 1092 q 303 1120 315 1107 q 273 1132 290 1132 q 245 1120 257 1132 q 233 1091 233 1107 m 273 1200 l 274 1200 q 345 1173 313 1200 q 361 1156 357 1161 q 383 1090 383 1126 q 350 1013 383 1046 l 345 1006 q 273 981 313 981 q 203 1006 235 981 q 189 1021 193 1015 q 176 1040 180 1032 q 164 1087 164 1065 l 164 1093 q 185 1155 164 1125 q 200 1172 189 1161 q 273 1200 233 1200 z "},"˛":{"ha":694,"x_min":0,"x_max":0,"o":""},"˜":{"ha":726,"x_min":164,"x_max":562,"o":"m 562 1152 q 521 1117 541 1128 q 458 1100 489 1100 q 362 1133 425 1100 q 267 1166 299 1166 q 209 1147 239 1166 q 164 1105 189 1134 l 164 1209 q 205 1244 185 1233 q 267 1261 237 1261 q 365 1228 302 1261 q 458 1194 428 1194 q 517 1213 486 1194 q 562 1256 537 1226 l 562 1152 z "},"˝":{"ha":583,"x_min":0,"x_max":0,"o":""},"–":{"ha":671,"x_min":47,"x_max":624,"o":"m 47 304 l 47 386 l 624 386 l 624 304 l 47 304 z "},"—":{"ha":916,"x_min":68,"x_max":848,"o":"m 68 366 l 848 366 l 848 271 l 68 271 l 68 366 z "},"‘":{"ha":359,"x_min":87,"x_max":249,"o":"m 155 844 q 100 873 121 844 q 87 923 87 892 q 186 1095 87 1006 q 222 1123 214 1118 l 249 1088 q 180 974 180 1024 q 216 941 205 964 q 224 911 224 928 q 193 854 224 878 q 155 844 176 844 z "},"’":{"ha":359,"x_min":111,"x_max":272,"o":"m 205 1123 q 260 1093 238 1123 q 272 1044 272 1074 q 173 872 272 960 q 138 844 146 848 l 111 879 q 179 992 179 943 q 144 1025 155 1002 q 136 1056 136 1039 q 166 1112 136 1089 q 205 1123 183 1123 z "},"‚":{"ha":335,"x_min":56,"x_max":218,"o":"m 151 131 q 205 101 184 131 q 218 52 218 82 q 119 -120 218 -32 q 83 -149 92 -144 l 56 -113 q 125 0 125 -50 q 90 33 100 10 q 81 64 81 47 q 112 119 81 97 q 151 131 129 131 z "},"“":{"ha":625,"x_min":108,"x_max":466,"o":"m 175 844 q 120 873 142 844 q 108 923 108 892 q 207 1095 108 1006 q 242 1123 234 1118 l 269 1088 q 201 974 201 1024 q 236 941 225 964 q 244 911 244 928 q 214 854 244 878 q 175 844 197 844 m 372 844 q 317 873 338 844 q 304 923 304 892 q 404 1095 304 1006 q 439 1123 431 1118 l 466 1088 q 397 974 397 1024 q 433 941 422 964 q 441 911 441 928 q 410 854 441 878 q 372 844 393 844 z "},"”":{"ha":625,"x_min":159,"x_max":517,"o":"m 450 1123 q 505 1093 484 1123 q 517 1044 517 1074 q 418 872 517 960 q 383 844 391 848 l 356 879 q 425 992 425 943 q 389 1025 400 1002 q 381 1056 381 1039 q 412 1112 381 1089 q 450 1123 429 1123 m 254 1123 q 309 1093 287 1123 q 321 1044 321 1074 q 222 872 321 960 q 186 844 195 848 l 159 879 q 228 992 228 943 q 193 1025 203 1002 q 184 1056 184 1039 q 215 1112 184 1089 q 254 1123 232 1123 z "},"„":{"ha":532,"x_min":56,"x_max":414,"o":"m 347 131 q 402 101 380 131 q 414 52 414 82 q 315 -120 414 -32 q 280 -149 288 -144 l 253 -113 q 321 0 321 -50 q 286 33 297 10 q 278 64 278 47 q 309 119 278 97 q 347 131 326 131 m 151 131 q 205 101 184 131 q 218 52 218 82 q 119 -120 218 -32 q 83 -149 92 -144 l 56 -113 q 125 0 125 -50 q 90 33 100 10 q 81 64 81 47 q 112 119 81 97 q 151 131 129 131 z "},"†":{"ha":600,"x_min":81,"x_max":522,"o":"m 254 454 l 81 454 l 81 549 l 254 549 l 254 722 l 349 722 l 349 549 l 522 549 l 522 454 l 349 454 l 349 0 l 254 0 l 254 454 z "},"‡":{"ha":600,"x_min":81,"x_max":522,"o":"m 254 454 l 81 454 l 81 549 l 254 549 l 254 722 l 349 722 l 349 549 l 522 549 l 522 454 l 349 454 l 349 268 l 522 268 l 522 173 l 349 173 l 349 0 l 254 0 l 254 173 l 81 173 l 81 268 l 254 268 l 254 454 z "},"•":{"ha":609,"x_min":203,"x_max":385,"o":"m 203 646 l 203 644 q 243 570 203 600 q 295 554 267 554 q 368 589 338 554 q 385 644 385 616 q 347 720 385 689 q 295 736 323 736 l 294 736 q 223 701 253 736 q 203 646 203 675 z "},"…":{"ha":814,"x_min":68,"x_max":746,"o":"m 135 136 l 136 136 q 187 112 165 136 q 203 71 203 92 l 203 66 q 178 16 203 37 q 135 0 159 0 q 88 19 109 0 q 68 65 68 41 l 68 71 q 90 118 68 96 q 135 136 110 136 m 677 136 l 679 136 q 730 112 708 136 q 746 71 746 92 l 746 66 q 721 16 746 37 q 677 0 702 0 q 631 19 652 0 q 610 65 610 41 l 610 71 q 633 118 610 96 q 677 136 652 136 m 406 136 l 408 136 q 458 112 437 136 q 475 71 475 92 l 475 66 q 450 16 475 37 q 406 0 431 0 q 359 19 380 0 q 339 65 339 41 l 339 71 q 361 118 339 96 q 406 136 381 136 z "},"‹":{"ha":431,"x_min":47,"x_max":363,"o":"m 47 283 l 47 355 l 235 479 l 311 528 q 363 449 363 450 l 165 319 q 363 189 355 195 l 311 110 q 281 129 310 110 l 130 228 l 47 283 z "},"›":{"ha":431,"x_min":68,"x_max":385,"o":"m 385 355 l 385 283 l 196 159 l 121 110 q 68 189 68 188 l 267 319 q 68 450 77 444 l 120 528 q 150 509 121 528 l 301 410 l 385 355 z "},"⁄":{"ha":175,"x_min":-203,"x_max":412,"o":"m 319 932 l 412 932 l 412 931 l -109 -34 l -203 -34 l 317 931 l 319 932 z "},"₣":{"ha":656,"x_min":54,"x_max":625,"o":"m 227 245 l 227 1 l 226 0 l 132 0 l 132 1 l 132 245 l 54 245 l 54 340 l 132 340 l 132 992 l 132 993 l 625 993 l 625 992 l 625 899 l 625 898 l 227 898 l 227 544 l 562 544 l 562 543 l 562 450 l 562 449 l 227 449 l 227 340 l 376 340 l 376 245 l 227 245 z "},"₤":{"ha":824,"x_min":36,"x_max":756,"o":"m 452 947 q 606 900 533 947 q 640 873 621 890 l 642 871 l 642 870 l 574 804 q 519 838 548 828 q 452 852 485 852 q 328 801 387 852 q 293 712 293 767 l 293 711 q 321 601 293 661 l 575 601 l 576 600 l 576 507 l 575 506 l 363 506 l 363 505 q 374 465 370 488 q 374 462 374 462 l 575 462 l 576 461 l 576 367 l 370 367 q 367 356 370 367 q 348 307 359 330 q 307 239 332 276 q 264 186 290 215 l 271 186 q 427 123 363 186 q 532 78 481 78 q 687 167 603 78 l 688 167 l 756 101 q 530 -17 646 -17 q 361 54 444 -17 q 323 81 338 76 q 272 91 300 91 q 113 36 204 91 l 95 24 l 36 98 q 107 161 74 130 q 181 235 162 213 q 236 304 219 278 q 267 358 258 336 l 270 367 l 126 367 l 126 461 l 127 462 l 277 462 q 263 501 277 467 q 261 506 261 505 l 127 506 l 126 507 l 126 600 l 127 601 l 218 601 q 198 707 198 658 l 198 715 q 233 836 198 781 q 262 870 241 848 q 452 947 349 947 z "},"₧":{"ha":1780,"x_min":117,"x_max":1750,"o":"m 930 993 l 1024 993 l 1025 992 l 1025 644 l 1200 644 l 1200 644 l 1200 549 l 1200 549 l 1025 549 l 1025 176 q 1039 125 1025 149 q 1078 98 1053 106 q 1097 95 1088 95 l 1101 95 q 1171 113 1126 95 l 1179 117 q 1218 30 1214 41 q 1179 14 1208 24 q 1105 0 1132 0 l 1093 0 q 1017 21 1057 0 q 943 106 964 50 q 930 182 930 141 l 930 549 l 823 549 l 823 549 l 823 644 l 823 644 l 930 644 l 930 993 m 1501 654 l 1510 654 q 1642 621 1579 654 q 1685 592 1662 611 q 1718 558 1706 574 q 1729 543 1729 545 q 1647 494 1667 507 l 1647 494 q 1610 530 1634 513 q 1505 559 1566 559 q 1389 524 1434 559 q 1358 465 1358 497 q 1378 427 1358 440 q 1399 414 1385 420 q 1501 382 1429 399 q 1587 365 1535 375 q 1643 346 1620 357 q 1684 321 1663 336 q 1709 297 1690 317 q 1750 193 1750 249 l 1750 189 q 1706 75 1750 128 q 1678 48 1688 56 q 1638 24 1656 33 q 1505 -7 1573 -7 l 1496 -7 q 1352 30 1421 -7 q 1249 134 1285 68 q 1288 156 1249 135 l 1331 180 q 1422 102 1362 125 q 1501 88 1459 88 q 1608 116 1560 88 q 1632 135 1617 121 q 1655 191 1655 161 q 1598 262 1655 235 q 1559 274 1585 268 q 1389 315 1451 293 q 1263 464 1263 361 l 1263 466 q 1310 580 1263 528 q 1341 607 1333 602 q 1412 641 1371 629 q 1501 654 1457 654 m 119 993 l 430 993 q 678 879 573 993 q 754 674 754 783 l 754 664 q 660 441 754 540 q 431 345 559 345 l 212 345 l 212 2 l 210 0 l 119 0 l 117 2 l 117 991 l 119 993 m 212 898 l 212 441 l 430 441 q 618 536 542 441 q 659 665 659 599 l 659 673 q 570 850 659 777 q 429 898 506 898 l 212 898 z "},"€":{"ha":918,"x_min":36,"x_max":850,"o":"m 543 908 l 549 908 q 781 843 669 908 q 838 801 806 827 q 850 791 848 793 l 786 720 q 668 791 734 768 q 545 813 608 813 q 323 736 424 813 q 286 702 309 725 q 237 637 253 665 q 212 585 224 616 l 207 570 l 792 570 l 793 570 l 793 475 l 792 475 l 189 475 l 189 474 l 188 456 l 188 454 q 191 409 188 431 l 792 409 l 793 408 l 793 315 l 792 314 l 217 314 q 394 132 272 191 q 545 98 467 98 q 745 159 652 98 q 785 191 762 171 l 786 191 l 850 121 l 850 121 q 793 77 819 94 q 547 3 678 3 l 544 3 q 313 67 422 3 q 264 101 290 81 q 220 142 250 111 q 174 197 187 176 q 134 267 152 229 q 116 314 124 289 l 37 314 l 36 315 l 36 408 l 37 409 l 96 409 q 93 450 93 431 l 93 468 l 94 475 l 37 475 l 36 475 l 36 570 l 37 570 l 108 570 q 132 642 119 612 q 171 710 147 673 q 210 760 185 732 q 250 798 239 790 q 309 842 286 828 q 387 880 342 862 q 543 908 465 908 z "},"№":{"ha":1622,"x_min":117,"x_max":1560,"o":"m 1010 95 l 1485 95 l 1485 0 l 1010 0 l 1010 95 m 119 993 l 235 993 q 598 401 241 987 l 751 150 l 753 150 l 753 991 l 754 993 l 846 993 l 848 991 l 848 2 l 846 0 l 734 0 q 683 81 724 11 q 320 675 680 85 l 216 843 l 216 2 l 214 0 l 119 0 l 117 2 l 117 991 l 119 993 m 1238 833 l 1256 833 q 1454 753 1360 833 q 1560 506 1560 649 q 1449 255 1560 361 q 1247 178 1356 178 q 1035 265 1130 178 q 935 503 935 369 l 935 511 q 1034 747 935 644 q 1238 833 1130 833 m 1029 507 l 1029 503 q 1101 334 1029 408 q 1247 273 1167 273 q 1422 367 1350 273 q 1466 507 1466 433 q 1388 684 1466 609 q 1251 739 1325 739 l 1241 739 q 1090 669 1160 739 q 1029 507 1029 597 z "},"™":{"ha":1654,"x_min":10,"x_max":1537,"o":"m 705 203 l 705 993 l 824 993 q 902 853 825 991 l 1045 596 l 1121 459 q 1154 517 1124 463 l 1302 783 q 1402 964 1303 783 l 1419 993 l 1537 993 l 1537 992 l 1537 203 l 1438 203 l 1438 831 l 1295 574 l 1162 338 q 1161 334 1162 334 l 1082 334 q 1059 375 1080 336 l 908 646 l 806 831 l 805 831 l 805 203 l 705 203 m 277 203 l 277 898 l 11 898 l 10 899 l 10 992 l 11 993 l 637 993 l 637 992 l 637 899 l 637 898 l 372 898 l 372 203 l 277 203 z "},"∂":{"ha":688,"x_min":0,"x_max":0,"o":""},"∆":{"ha":733,"x_min":0,"x_max":0,"o":""},"∏":{"ha":1027,"x_min":0,"x_max":0,"o":""},"∑":{"ha":818,"x_min":0,"x_max":0,"o":""},"−":{"ha":547,"x_min":52,"x_max":492,"o":"m 52 461 l 492 461 l 492 366 l 52 366 l 52 461 z "},"√":{"ha":688,"x_min":0,"x_max":0,"o":""},"∞":{"ha":688,"x_min":0,"x_max":0,"o":""},"∫":{"ha":451,"x_min":0,"x_max":0,"o":""},"≈":{"ha":478,"x_min":41,"x_max":439,"o":"m 439 414 q 398 380 418 391 q 336 363 366 363 q 240 396 303 363 q 144 429 176 429 q 86 410 117 429 q 41 368 66 397 l 41 472 q 83 507 62 496 q 144 524 115 524 q 242 491 179 524 q 336 457 306 457 q 394 476 363 457 q 439 519 414 489 l 439 414 m 439 238 q 398 203 418 215 q 336 186 366 186 q 240 219 303 186 q 144 252 176 252 q 86 233 117 252 q 41 191 66 220 l 41 296 q 83 330 62 319 q 144 348 115 348 q 242 314 179 348 q 336 281 306 281 q 394 300 363 281 q 439 342 414 313 l 439 238 z "},"≤":{"ha":591,"x_min":58,"x_max":532,"o":"m 412 869 l 472 795 l 235 602 l 157 538 l 235 475 l 472 281 l 412 208 l 180 397 l 58 497 l 58 579 q 224 715 61 583 l 412 869 m 58 95 l 532 95 l 532 0 l 58 0 l 58 95 z "},"≥":{"ha":591,"x_min":58,"x_max":533,"o":"m 367 715 q 533 579 530 583 l 533 497 l 411 397 l 179 208 l 119 281 l 355 475 l 433 538 l 355 602 l 119 795 l 179 869 l 367 715 m 533 0 l 58 0 l 58 95 l 533 95 l 533 0 z "},"":{"ha":684,"x_min":18,"x_max":593,"o":"m 382 993 l 401 993 l 402 992 l 402 899 l 401 898 l 387 898 q 258 810 302 898 q 229 649 229 749 l 229 644 l 401 644 l 402 644 l 402 550 l 401 549 l 229 549 l 229 1 l 229 0 l 135 0 l 134 1 l 134 549 l 19 549 l 18 550 l 18 644 l 19 644 l 134 644 l 134 657 q 202 901 134 808 q 229 930 210 911 q 269 961 252 951 q 307 979 287 972 q 382 993 345 993 m 479 644 l 572 644 l 573 644 l 573 1 l 572 0 l 479 0 l 478 1 l 478 644 l 479 644 m 523 993 l 528 993 q 576 971 553 993 q 593 927 593 950 l 593 924 q 569 873 593 895 q 528 857 549 857 l 524 857 q 472 884 494 857 q 458 922 458 903 l 458 928 q 479 975 458 954 q 523 993 500 993 z "}}}
